<svg width="276" height="52" viewBox="0 0 276 52" fill="currentColor" xmlns="http://www.w3.org/2000/svg">
  <g clip-path="url(#clip0_1509_4463)">
    <path
      d="M14.6783 50.6046H0.630692V19.981C0.630692 8.74297 8.42709 0.314453 18.7521 0.314453C24.2306 0.314453 29.5687 2.63229 32.6591 6.77631C35.7496 2.63229 41.0877 0.314453 46.5662 0.314453C56.8912 0.314453 64.6876 8.74297 64.6876 19.981V50.6046H50.64V19.2786C50.64 16.2584 48.1817 13.8001 45.1615 13.8001C42.1412 13.8001 39.6829 16.2584 39.6829 19.2786V50.6046H25.6354V19.2786C25.6354 16.2584 23.177 13.8001 20.1568 13.8001C17.1366 13.8001 14.6783 16.2584 14.6783 19.2786V50.6046Z"
      fill="#28CB87" />
    <path
      d="M87.3135 50.6046H73.2659V22.2286C73.2659 9.51558 82.9587 0.314453 95.3206 0.314453C108.104 0.314453 117.375 9.51558 117.375 22.2286V50.6046H103.328V37.8916H87.3135V50.6046ZM87.3135 21.1048V25.5298H103.328V21.1048C103.328 16.5393 99.8861 13.0977 95.3206 13.0977C90.7551 13.0977 87.3135 16.5393 87.3135 21.1048Z"
      fill="#28CB87" />
    <path d="M140.008 50.6046H125.961V1.43825H160.307V14.2215H140.008V22.0881H157.568V34.5904H140.008V50.6046Z"
      fill="#28CB87" />
    <path
      d="M190.52 51.7284C175.629 51.7284 163.829 40.3499 163.829 26.0214C163.829 11.6929 175.629 0.314453 190.52 0.314453C205.41 0.314453 217.21 11.6929 217.21 26.0214C217.21 40.3499 205.41 51.7284 190.52 51.7284ZM190.52 38.5237C197.473 38.5237 203.022 32.9749 203.022 26.0214C203.022 19.0679 197.473 13.5191 190.52 13.5191C183.566 13.5191 178.017 19.0679 178.017 26.0214C178.017 32.9749 183.566 38.5237 190.52 38.5237Z"
      fill="#28CB87" />
    <path
      d="M248.891 51.7284C234.001 51.7284 222.201 40.3499 222.201 26.0214C222.201 11.6929 234.001 0.314453 248.891 0.314453C263.782 0.314453 275.582 11.6929 275.582 26.0214C275.582 40.3499 263.782 51.7284 248.891 51.7284ZM248.891 38.5237C255.845 38.5237 261.394 32.9749 261.394 26.0214C261.394 19.0679 255.845 13.5191 248.891 13.5191C241.938 13.5191 236.389 19.0679 236.389 26.0214C236.389 32.9749 241.938 38.5237 248.891 38.5237Z"
      fill="#28CB87" />
  </g>
  <path fill-rule="evenodd" clip-rule="evenodd"
    d="M64.5647 17.3449C64.5647 7.93922 56.9399 0.314453 47.5343 0.314453H46.1383C40.617 0.314453 35.7093 2.94192 32.5975 7.0147C29.4856 2.94223 24.5782 0.315006 19.0571 0.315006H17.6612C8.2555 0.315006 0.630707 7.93978 0.630707 17.3454C0.630707 17.7206 0.642841 18.093 0.666737 18.4622H0.630707V50.5687H31.8997V50.5682H39.1587V50.5681H64.5647V18.4616H64.5287C64.5526 18.0924 64.5647 17.7201 64.5647 17.3449Z"
    fill="#28CB86" />
  <ellipse cx="21.4302" cy="30.4668" rx="9.0736" ry="11.1675" fill="white" />
  <ellipse cx="25.3387" cy="30.6063" rx="5.16497" ry="5.44415" fill="#1F1614" />
  <ellipse cx="44.0443" cy="30.4668" rx="9.0736" ry="11.1675" fill="white" />
  <ellipse cx="47.9529" cy="30.6063" rx="5.16497" ry="5.44415" fill="#1F1614" />
  <defs>
    <clipPath id="clip0_1509_4463">
      <rect width="206.878" height="51.3704" fill="white" transform="translate(68.7526 0.314697)" />
    </clipPath>
  </defs>
</svg>