<svg width="393" height="680" viewBox="0 0 393 680" fill="none" xmlns="http://www.w3.org/2000/svg">
<g clip-path="url(#clip0_4184_11225)">
<path fill-rule="evenodd" clip-rule="evenodd" d="M24 0C10.7452 0 0 10.7452 0 24V656C0 669.255 10.7452 680 24 680H369C382.255 680 393 669.255 393 656V24C393 10.7452 382.255 0 369 0H24ZM58.5 138.155C51.8726 138.155 46.5 143.528 46.5 150.155V569.845C46.5 576.473 51.8726 581.845 58.5 581.845H333.5C340.127 581.845 345.5 576.473 345.5 569.845V150.155C345.5 143.528 340.127 138.155 333.5 138.155H58.5Z" fill="url(#paint0_linear_4184_11225)"/>
<g clip-path="url(#clip1_4184_11225)">
<path d="M54.0789 129.921C61.1004 130.929 66 133.456 66 138C66 142.544 61.1004 145.071 54.0789 146.079C53.0712 153.1 50.544 158 46 158C41.456 158 38.9288 153.1 37.9211 146.079C30.8996 145.071 26 142.544 26 138C26 133.456 30.8996 130.929 37.9211 129.921C38.9288 122.9 41.456 118 46 118C50.544 118 53.0712 122.9 54.0789 129.921Z" fill="white"/>
</g>
<g clip-path="url(#clip2_4184_11225)">
<path d="M352.454 217.345C357.369 218.05 360.799 219.819 360.799 223C360.799 226.181 357.369 227.95 352.454 228.655C351.749 233.57 349.98 237 346.799 237C343.618 237 341.849 233.57 341.144 228.655C336.229 227.95 332.799 226.181 332.799 223C332.799 219.819 336.229 218.05 341.144 217.345C341.849 212.43 343.618 209 346.799 209C349.98 209 351.749 212.43 352.454 217.345Z" fill="white"/>
</g>
<g clip-path="url(#clip3_4184_11225)">
<path d="M343.765 618.966C341.648 633.711 336.341 644 326.799 644C317.256 644 311.949 633.711 309.833 618.966C295.088 616.85 284.799 611.542 284.799 602C284.799 592.458 295.088 587.15 309.833 585.034C311.949 570.289 317.256 560 326.799 560C336.341 560 341.648 570.289 343.765 585.034C358.51 587.15 368.799 592.458 368.799 602C368.799 611.542 358.51 616.85 343.765 618.966Z" fill="white"/>
</g>
<g clip-path="url(#clip4_4184_11225)">
<path d="M47 487C48.9878 496.981 52.961 500.993 63 503C52.9586 505.007 48.9854 509.019 47 519C45.0122 509.019 41.039 505.005 31 503C41.0414 500.993 45.0146 496.981 47 487Z" fill="white"/>
</g>
<g clip-path="url(#clip5_4184_11225)">
<path d="M327 41C328.988 50.9812 332.961 54.9929 343 57C332.959 59.0071 328.985 63.0188 327 73C325.012 63.0188 321.039 59.0047 311 57C321.041 54.9929 325.015 50.9812 327 41Z" fill="white"/>
</g>
<circle cx="343.325" cy="78.5391" r="4" fill="white"/>
<circle cx="22.3252" cy="437.539" r="3" fill="white"/>
<circle cx="46.3252" cy="374.539" r="5" fill="white"/>
</g>
<defs>
<linearGradient id="paint0_linear_4184_11225" x1="43.0821" y1="33.961" x2="381.577" y2="680" gradientUnits="userSpaceOnUse">
<stop stop-color="#6DE694"/>
<stop offset="1" stop-color="#F7F286"/>
</linearGradient>
<clipPath id="clip0_4184_11225">
<rect width="393" height="680" rx="24" fill="white"/>
</clipPath>
<clipPath id="clip1_4184_11225">
<rect width="40" height="40" fill="white" transform="translate(26 118)"/>
</clipPath>
<clipPath id="clip2_4184_11225">
<rect width="28" height="28" fill="white" transform="translate(332.799 209)"/>
</clipPath>
<clipPath id="clip3_4184_11225">
<rect width="84" height="84" fill="white" transform="translate(368.799 560) rotate(90)"/>
</clipPath>
<clipPath id="clip4_4184_11225">
<rect width="32" height="32" fill="white" transform="translate(31 487)"/>
</clipPath>
<clipPath id="clip5_4184_11225">
<rect width="32" height="32" fill="white" transform="translate(311 41)"/>
</clipPath>
</defs>
</svg>
