<svg width="393" height="680" viewBox="0 0 393 680" fill="none" xmlns="http://www.w3.org/2000/svg">
<g clip-path="url(#clip0_4173_12509)">
<path fill-rule="evenodd" clip-rule="evenodd" d="M24 0C10.7452 0 0 10.7452 0 24V656C0 669.255 10.7452 680 24 680H369C382.255 680 393 669.255 393 656V24C393 10.7452 382.255 0 369 0H24ZM58.5 138.155C51.8726 138.155 46.5 143.528 46.5 150.155V569.845C46.5 576.473 51.8726 581.845 58.5 581.845H333.5C340.127 581.845 345.5 576.473 345.5 569.845V150.155C345.5 143.528 340.127 138.155 333.5 138.155H58.5Z" fill="url(#paint0_linear_4173_12509)"/>
<g clip-path="url(#clip1_4173_12509)">
<path d="M47 487C48.9878 496.981 52.961 500.993 63 503C52.9586 505.007 48.9854 509.019 47 519C45.0122 509.019 41.039 505.005 31 503C41.0414 500.993 45.0146 496.981 47 487Z" fill="white"/>
</g>
<g clip-path="url(#clip2_4173_12509)">
<path d="M327 41C328.988 50.9812 332.961 54.9929 343 57C332.959 59.0071 328.985 63.0188 327 73C325.012 63.0188 321.039 59.0047 311 57C321.041 54.9929 325.015 50.9812 327 41Z" fill="white"/>
</g>
<circle cx="343.325" cy="78.5391" r="4" fill="white"/>
<circle cx="22.3252" cy="437.539" r="3" fill="white"/>
<circle cx="46.3252" cy="374.539" r="5" fill="white"/>
<g clip-path="url(#clip3_4173_12509)">
<path d="M49.4 118H42.6L45.0937 135.812L34.262 121.454L29.4537 126.262L43.8119 137.094L26 134.6V141.4L43.8119 138.906L29.4537 149.738L34.262 154.546L45.0937 140.188L42.6 158H49.4L46.9063 140.188L57.738 154.546L62.5463 149.738L48.1881 138.906L66 141.4V134.6L48.1881 137.094L62.5463 126.262L57.738 121.454L46.9063 135.812L49.4 118Z" fill="white"/>
</g>
<g clip-path="url(#clip4_4173_12509)">
<path d="M347.705 209H342.945L344.691 221.468L337.109 211.418L333.743 214.783L343.794 222.366L331.325 220.62V225.38L343.794 223.634L333.743 231.217L337.109 234.582L344.691 224.532L342.945 237H347.705L345.96 224.532L353.542 234.582L356.908 231.217L346.857 223.634L359.325 225.38V220.62L346.857 222.366L356.908 214.783L353.542 211.418L345.96 221.468L347.705 209Z" fill="white"/>
</g>
<g clip-path="url(#clip5_4173_12509)">
<path d="M332.465 560H318.185L323.422 597.405L300.675 567.253L290.578 577.35L320.73 600.097L283.325 594.86V609.14L320.73 603.903L290.578 626.65L300.675 636.747L323.422 606.595L318.185 644H332.465L327.228 606.595L349.975 636.747L360.072 626.65L329.92 603.903L367.325 609.14V594.86L329.92 600.097L360.072 577.35L349.975 567.253L327.228 597.405L332.465 560Z" fill="white"/>
</g>
</g>
<defs>
<linearGradient id="paint0_linear_4173_12509" x1="-7.35462e-06" y1="33.9011" x2="367.352" y2="648.105" gradientUnits="userSpaceOnUse">
<stop stop-color="#92AAFF"/>
<stop offset="1" stop-color="#9FE7FC"/>
</linearGradient>
<clipPath id="clip0_4173_12509">
<rect width="393" height="680" rx="24" fill="white"/>
</clipPath>
<clipPath id="clip1_4173_12509">
<rect width="32" height="32" fill="white" transform="translate(31 487)"/>
</clipPath>
<clipPath id="clip2_4173_12509">
<rect width="32" height="32" fill="white" transform="translate(311 41)"/>
</clipPath>
<clipPath id="clip3_4173_12509">
<rect width="40" height="40" fill="white" transform="translate(26 118)"/>
</clipPath>
<clipPath id="clip4_4173_12509">
<rect width="28" height="28" fill="white" transform="translate(331.325 209)"/>
</clipPath>
<clipPath id="clip5_4173_12509">
<rect width="84" height="84" fill="white" transform="translate(283.325 560)"/>
</clipPath>
</defs>
</svg>
