<svg width="393" height="680" viewBox="0 0 393 680" fill="none" xmlns="http://www.w3.org/2000/svg">
<g clip-path="url(#clip0_4173_12487)">
<path fill-rule="evenodd" clip-rule="evenodd" d="M24 0C10.7452 0 0 10.7452 0 24V656C0 669.255 10.7452 680 24 680H369C382.255 680 393 669.255 393 656V24C393 10.7452 382.255 0 369 0H24ZM58.5 138.155C51.8726 138.155 46.5 143.528 46.5 150.155V569.845C46.5 576.473 51.8726 581.845 58.5 581.845H333.5C340.127 581.845 345.5 576.473 345.5 569.845V150.155C345.5 143.528 340.127 138.155 333.5 138.155H58.5Z" fill="url(#paint0_linear_4173_12487)"/>
<g clip-path="url(#clip1_4173_12487)">
<path d="M37.7157 118L46 124.297L54.2843 118L55.6895 128.31L66 129.716L59.7031 138L66 146.284L55.6895 147.69L54.2843 158L46 151.703L37.7157 158L36.3105 147.69L26 146.284L32.2969 138L26 129.716L36.3105 128.31L37.7157 118Z" fill="white"/>
</g>
<g clip-path="url(#clip2_4173_12487)">
<path d="M340.201 209L346 213.408L351.799 209L352.783 216.217L360 217.201L355.592 223L360 228.799L352.783 229.783L351.799 237L346 232.592L340.201 237L339.217 229.783L332 228.799L336.408 223L332 217.201L339.217 216.217L340.201 209Z" fill="white"/>
</g>
<g clip-path="url(#clip3_4173_12487)">
<path d="M47 487C48.9878 496.981 52.961 500.993 63 503C52.9586 505.007 48.9854 509.019 47 519C45.0122 509.019 41.039 505.005 31 503C41.0414 500.993 45.0146 496.981 47 487Z" fill="white"/>
</g>
<g clip-path="url(#clip4_4173_12487)">
<path d="M327 41C328.988 50.9812 332.961 54.9929 343 57C332.959 59.0071 328.985 63.0188 327 73C325.012 63.0188 321.039 59.0047 311 57C321.041 54.9929 325.015 50.9812 327 41Z" fill="white"/>
</g>
<circle cx="343.325" cy="78.5391" r="4" fill="white"/>
<circle cx="22.3252" cy="437.539" r="3" fill="white"/>
<circle cx="46.3252" cy="374.539" r="5" fill="white"/>
<g clip-path="url(#clip5_4173_12487)">
<path d="M308.603 560L326 573.224L343.397 560L346.348 581.652L368 584.603L354.776 602L368 619.397L346.348 622.348L343.397 644L326 630.776L308.603 644L305.652 622.348L284 619.397L297.224 602L284 584.603L305.652 581.652L308.603 560Z" fill="white"/>
</g>
</g>
<defs>
<linearGradient id="paint0_linear_4173_12487" x1="43.0821" y1="33.961" x2="381.577" y2="680" gradientUnits="userSpaceOnUse">
<stop stop-color="#FFB864"/>
<stop offset="1" stop-color="#FFEB85"/>
</linearGradient>
<clipPath id="clip0_4173_12487">
<rect width="393" height="680" rx="24" fill="white"/>
</clipPath>
<clipPath id="clip1_4173_12487">
<rect width="40" height="40" fill="white" transform="translate(26 118)"/>
</clipPath>
<clipPath id="clip2_4173_12487">
<rect width="28" height="28" fill="white" transform="translate(332 209)"/>
</clipPath>
<clipPath id="clip3_4173_12487">
<rect width="32" height="32" fill="white" transform="translate(31 487)"/>
</clipPath>
<clipPath id="clip4_4173_12487">
<rect width="32" height="32" fill="white" transform="translate(311 41)"/>
</clipPath>
<clipPath id="clip5_4173_12487">
<rect width="84" height="84" fill="white" transform="translate(284 560)"/>
</clipPath>
</defs>
</svg>
