<svg width="393" height="680" viewBox="0 0 393 680" fill="none" xmlns="http://www.w3.org/2000/svg">
<g clip-path="url(#clip0_4173_12477)">
<path fill-rule="evenodd" clip-rule="evenodd" d="M24 0C10.7452 0 0 10.7452 0 24V656C0 669.255 10.7452 680 24 680H369C382.255 680 393 669.255 393 656V24C393 10.7452 382.255 0 369 0H24ZM58.5 138.155C51.8726 138.155 46.5 143.528 46.5 150.155V569.845C46.5 576.473 51.8726 581.845 58.5 581.845H333.5C340.127 581.845 345.5 576.473 345.5 569.845V150.155C345.5 143.528 340.127 138.155 333.5 138.155H58.5Z" fill="url(#paint0_linear_4173_12477)"/>
<path d="M41.1726 140H26V136H41.1707L33.1711 128L35.9994 125.172L44 133.172V118H48V133.172L56.0004 125.172L58.8287 128L50.8291 136H66V140H50.8272L58.8287 148.002L56.0004 150.83L48 142.83V158H44V142.829L35.9994 150.83L33.1711 148.002L41.1726 140Z" fill="white"/>
<path d="M343.621 224.4H333V221.6H343.619L338.02 216L340 214.02L345.6 219.621V209H348.4V219.621L354 214.02L355.98 216L350.38 221.6H361V224.4H350.379L355.98 230.001L354 231.981L348.4 226.381V237H345.6V226.381L340 231.981L338.02 230.001L343.621 224.4Z" fill="white"/>
<g clip-path="url(#clip1_4173_12477)">
<path d="M47 487C48.9878 496.981 52.961 500.993 63 503C52.9586 505.007 48.9854 509.019 47 519C45.0122 509.019 41.039 505.005 31 503C41.0414 500.993 45.0146 496.981 47 487Z" fill="white"/>
</g>
<g clip-path="url(#clip2_4173_12477)">
<path d="M327 41C328.988 50.9812 332.961 54.9929 343 57C332.959 59.0071 328.985 63.0188 327 73C325.012 63.0188 321.039 59.0047 311 57C321.041 54.9929 325.015 50.9812 327 41Z" fill="white"/>
</g>
<circle cx="343.325" cy="78.5391" r="4" fill="white"/>
<circle cx="22.3252" cy="437.539" r="3" fill="white"/>
<circle cx="46.3252" cy="374.539" r="5" fill="white"/>
<path d="M315.862 606.2H284V597.8H315.858L299.059 581L304.999 575.06L321.8 591.862V560H330.2V591.862L347.001 575.06L352.94 581L336.141 597.8H368V606.2H336.137L352.94 623.004L347.001 628.944L330.2 612.142V644H321.8V612.142L304.999 628.944L299.059 623.004L315.862 606.2Z" fill="white"/>
</g>
<defs>
<linearGradient id="paint0_linear_4173_12477" x1="12.0868" y1="-1.97384e-05" x2="517.465" y2="105.627" gradientUnits="userSpaceOnUse">
<stop stop-color="#FF9B9C"/>
<stop offset="1" stop-color="#F89AFF"/>
</linearGradient>
<clipPath id="clip0_4173_12477">
<rect width="393" height="680" rx="24" fill="white"/>
</clipPath>
<clipPath id="clip1_4173_12477">
<rect width="32" height="32" fill="white" transform="translate(31 487)"/>
</clipPath>
<clipPath id="clip2_4173_12477">
<rect width="32" height="32" fill="white" transform="translate(311 41)"/>
</clipPath>
</defs>
</svg>
