<svg width="393" height="680" viewBox="0 0 393 680" fill="none" xmlns="http://www.w3.org/2000/svg">
<g clip-path="url(#clip0_4173_12519)">
<path fill-rule="evenodd" clip-rule="evenodd" d="M24 0C10.7452 0 0 10.7452 0 24V656C0 669.255 10.7452 680 24 680H369C382.255 680 393 669.255 393 656V24C393 10.7452 382.255 0 369 0H24ZM58.5 138.155C51.8726 138.155 46.5 143.528 46.5 150.155V569.845C46.5 576.473 51.8726 581.845 58.5 581.845H333.5C340.127 581.845 345.5 576.473 345.5 569.845V150.155C345.5 143.528 340.127 138.155 333.5 138.155H58.5Z" fill="url(#paint0_linear_4173_12519)"/>
<g clip-path="url(#clip1_4173_12519)">
<path d="M47 487C48.9878 496.981 52.961 500.993 63 503C52.9586 505.007 48.9854 509.019 47 519C45.0122 509.019 41.039 505.005 31 503C41.0414 500.993 45.0146 496.981 47 487Z" fill="white"/>
</g>
<g clip-path="url(#clip2_4173_12519)">
<path d="M327 41C328.988 50.9812 332.961 54.9929 343 57C332.959 59.0071 328.985 63.0188 327 73C325.012 63.0188 321.039 59.0047 311 57C321.041 54.9929 325.015 50.9812 327 41Z" fill="white"/>
</g>
<circle cx="343.325" cy="78.54" r="4" fill="white"/>
<circle cx="22.3252" cy="437.54" r="3" fill="white"/>
<circle cx="46.3252" cy="374.54" r="5" fill="white"/>
<rect width="128.281" height="27.0175" transform="translate(19.1592 184.363) rotate(-25)" fill="white" fill-opacity="0.8"/>
<path d="M37.8013 193.971L38.8312 195.117C38.4231 195.803 37.67 196.479 36.8432 196.864C35.3677 197.553 33.8492 197.285 33.1137 195.708L31.5181 192.286L30.2206 192.891L29.5326 191.415L30.83 190.81L30.0708 189.182L32.0424 188.263L32.8016 189.891L35.6891 188.545L36.3772 190.02L33.4897 191.367L34.9251 194.445C35.2573 195.157 35.9635 195.277 36.6631 194.951C37.1465 194.725 37.496 194.346 37.8013 193.971ZM42.1887 185.204C44.2875 184.225 45.9916 185.057 46.8635 186.927L48.7556 190.984L46.784 191.904L44.9512 187.973C44.4173 186.828 43.5161 186.49 42.3459 187.036C41.3028 187.522 40.6633 188.409 40.5594 189.68L42.5228 193.891L40.5512 194.81L37.2829 187.801L36.1619 185.397L38.1335 184.478L39.302 186.984L39.8299 188.116C39.9693 186.92 40.8404 185.833 42.1887 185.204ZM51.1613 181.005C53.718 179.812 55.8088 180.278 56.8231 182.453L58.0272 185.035C58.2644 185.544 58.5492 185.922 58.968 186.222L56.9455 187.165C56.6742 186.982 56.4242 186.712 56.3055 186.457L56.2996 186.444C56.0382 187.279 55.2451 188.268 53.8968 188.897C52.3958 189.597 50.1709 189.906 49.3227 188.087C48.4745 186.268 50.1478 184.776 51.6488 184.076C52.9971 183.447 54.2588 183.463 55.0718 183.811L54.8583 183.354C54.2532 182.056 53.14 181.894 51.461 182.677C50.5069 183.122 49.8031 183.605 49.1771 184.454L47.9869 183.429C48.6833 182.532 49.9147 181.586 51.1613 181.005ZM55.7624 185.193L55.6794 185.015C54.7723 184.431 53.6343 184.714 52.7312 185.135C51.9171 185.515 50.8104 186.263 51.2434 187.192C51.6764 188.12 52.967 187.766 53.7811 187.387C54.6842 186.965 55.6264 186.263 55.7624 185.193ZM62.8571 184.409L60.8854 185.328L57.6172 178.319L59.5888 177.4L60.1642 178.634C60.3036 177.438 61.1747 176.351 62.523 175.722C64.6218 174.743 66.3258 175.575 67.1978 177.445L69.0899 181.502L67.1183 182.422L65.2855 178.491C64.7516 177.346 63.8504 177.008 62.6802 177.554C61.6371 178.04 60.9976 178.927 60.8937 180.198L62.8571 184.409ZM77.3815 177.636L73.4488 175.645L72.4476 177.815L73.2602 179.558L71.2886 180.477L66.8993 171.064L68.8709 170.145L71.5816 175.958L73.7698 170.787L76.0976 169.702L74.3184 173.923L79.5567 176.622L77.3815 177.636ZM82.3671 169.968C84.627 169.069 86.545 168.965 87.2449 170.466C87.8736 171.814 87.0753 173.456 84.5185 174.649C82.6995 175.497 80.824 175.659 79.509 175.297L79.9173 173.681C80.933 173.967 82.3558 173.83 83.8695 173.124C84.9889 172.602 85.7462 172.001 85.4911 171.454C85.2539 170.945 84.389 171.116 82.8533 171.708C80.8164 172.488 78.7084 172.882 77.9789 171.318C77.3442 169.957 78.1654 168.397 80.8112 167.163C82.2867 166.475 83.8673 166.311 84.9991 166.48L84.6773 168.148C83.7455 168.009 82.6687 168.124 81.4094 168.712C80.5953 169.091 79.4971 169.758 79.764 170.331C80.0131 170.865 81.0086 170.509 82.3671 169.968ZM90.0812 163.088C90.3818 161.508 91.6652 159.81 93.7385 158.843C95.8628 157.853 98.4727 157.704 99.3386 159.561C100.05 161.088 99.0105 162.61 97.2905 164.202C95.8919 165.52 94.9241 166.699 94.9222 167.459L101.766 164.268L102.531 165.909L93.1942 170.262L92.7731 169.359C92.2564 167.587 93.2075 165.409 95.4432 163.329C96.6747 162.151 97.6398 161.298 97.2958 160.56C96.9399 159.797 95.5985 159.943 94.4282 160.488C93.0799 161.117 92.247 162.187 91.7938 163.606L90.0812 163.088ZM109.584 162.96C106.226 164.526 103.354 163.713 101.972 160.749C100.59 157.786 101.813 155.062 105.171 153.497C108.542 151.925 111.414 152.738 112.796 155.702C114.178 158.665 112.955 161.388 109.584 162.96ZM108.778 161.199C110.839 160.238 111.636 158.627 110.723 156.668C109.81 154.71 108.063 154.285 106.002 155.246C103.929 156.213 103.131 157.824 104.045 159.782C104.958 161.741 106.705 162.166 108.778 161.199ZM113.136 152.338C113.437 150.757 114.72 149.059 116.793 148.093C118.918 147.102 121.527 146.953 122.393 148.811C123.105 150.337 122.065 151.86 120.345 153.451C118.947 154.769 117.979 155.949 117.977 156.708L124.82 153.517L125.585 155.158L116.249 159.512L115.828 158.609C115.311 156.836 116.262 154.658 118.498 152.578C119.729 151.4 120.695 150.547 120.35 149.81C119.995 149.046 118.653 149.192 117.483 149.738C116.135 150.366 115.302 151.436 114.848 152.855L113.136 152.338ZM135.645 146.27L136.381 147.848L134.575 148.69L135.447 150.56L133.462 151.485L132.59 149.615L125.849 152.759L125.297 151.576L129.488 142.498L131.295 141.656L133.839 147.113L135.645 146.27ZM127.81 149.924L131.868 148.032L130.26 144.585L127.81 149.924Z" fill="#2D3541"/>
<g clip-path="url(#clip3_4173_12519)">
<path d="M46.207 118C45.1258 118 44.2712 118.917 44.3467 119.995L45.485 136.257L34.7911 123.953C34.0818 123.137 32.8294 123.093 32.0649 123.858C31.3004 124.622 31.3441 125.875 32.1602 126.584L44.4639 137.278L28.2021 136.14C27.1236 136.064 26.207 136.919 26.207 138C26.207 139.081 27.1236 139.936 28.2022 139.86L44.4639 138.722L32.1602 149.416C31.3441 150.125 31.3004 151.378 32.0649 152.142C32.8294 152.907 34.0818 152.863 34.7911 152.047L45.485 139.743L44.3467 156.005C44.2712 157.083 45.1258 158 46.207 158C47.2883 158 48.1429 157.083 48.0674 156.005L46.9291 139.743L57.6229 152.047C58.3322 152.863 59.5846 152.907 60.3492 152.142C61.1137 151.378 61.0699 150.125 60.2539 149.416L47.9501 138.722L64.2119 139.86C65.2905 139.936 66.207 139.081 66.207 138C66.207 136.919 65.2905 136.064 64.2119 136.14L47.9501 137.278L60.2539 126.584C61.0699 125.875 61.1137 124.622 60.3492 123.858C59.5846 123.093 58.3322 123.137 57.6229 123.953L46.929 136.257L48.0674 119.995C48.1429 118.917 47.2883 118 46.207 118Z" fill="white"/>
</g>
<g clip-path="url(#clip4_4173_12519)">
<path d="M345 209C344.243 209 343.645 209.642 343.698 210.397L344.495 221.78L337.009 213.167C336.512 212.596 335.636 212.565 335.101 213.101C334.565 213.636 334.596 214.512 335.167 215.009L343.78 222.495L332.397 221.698C331.642 221.645 331 222.243 331 223C331 223.757 331.642 224.355 332.397 224.302L343.78 223.505L335.167 230.991C334.596 231.488 334.565 232.364 335.101 232.899C335.636 233.435 336.512 233.404 337.009 232.833L344.495 224.22L343.698 235.603C343.645 236.358 344.243 237 345 237C345.757 237 346.355 236.358 346.302 235.603L345.505 224.22L352.991 232.833C353.488 233.404 354.364 233.435 354.899 232.899C355.435 232.364 355.404 231.488 354.833 230.991L346.22 223.505L357.603 224.302C358.358 224.355 359 223.757 359 223C359 222.243 358.358 221.645 357.603 221.698L346.22 222.495L354.833 215.009C355.404 214.512 355.435 213.636 354.899 213.101C354.364 212.565 353.488 212.596 352.991 213.167L345.505 221.78L346.302 210.397C346.355 209.642 345.757 209 345 209Z" fill="white"/>
</g>
<g clip-path="url(#clip5_4173_12519)">
<path d="M325 560C322.729 560 320.935 561.925 321.093 564.19L323.484 598.339L301.027 572.502C299.537 570.788 296.907 570.696 295.302 572.302C293.696 573.907 293.788 576.537 295.502 578.027L321.339 600.484L287.19 598.093C284.925 597.935 283 599.729 283 602C283 604.271 284.925 606.065 287.19 605.907L321.339 603.516L295.502 625.973C293.788 627.463 293.696 630.093 295.302 631.698C296.907 633.304 299.537 633.212 301.027 631.498L323.484 605.661L321.093 639.81C320.935 642.075 322.729 644 325 644C327.271 644 329.065 642.075 328.907 639.81L326.516 605.661L348.973 631.498C350.463 633.212 353.093 633.304 354.698 631.698C356.304 630.093 356.212 627.463 354.498 625.973L328.661 603.516L362.81 605.907C365.075 606.065 367 604.271 367 602C367 599.729 365.075 597.935 362.81 598.093L328.661 600.484L354.498 578.027C356.212 576.537 356.304 573.907 354.698 572.302C353.093 570.696 350.463 570.788 348.973 572.502L326.516 598.339L328.907 564.19C329.065 561.925 327.271 560 325 560Z" fill="white"/>
</g>
</g>
<defs>
<linearGradient id="paint0_linear_4173_12519" x1="-7.35462e-06" y1="33.9011" x2="367.352" y2="648.105" gradientUnits="userSpaceOnUse">
<stop stop-color="#DF9AFF"/>
<stop offset="1" stop-color="#BAC5FF"/>
</linearGradient>
<clipPath id="clip0_4173_12519">
<rect width="393" height="680" rx="24" fill="white"/>
</clipPath>
<clipPath id="clip1_4173_12519">
<rect width="32" height="32" fill="white" transform="translate(31 487)"/>
</clipPath>
<clipPath id="clip2_4173_12519">
<rect width="32" height="32" fill="white" transform="translate(311 41)"/>
</clipPath>
<clipPath id="clip3_4173_12519">
<rect width="40" height="40" fill="white" transform="translate(26.207 118)"/>
</clipPath>
<clipPath id="clip4_4173_12519">
<rect width="28" height="28" fill="white" transform="translate(331 209)"/>
</clipPath>
<clipPath id="clip5_4173_12519">
<rect width="84" height="84" fill="white" transform="translate(283 560)"/>
</clipPath>
</defs>
</svg>
