<svg width="196" height="32" viewBox="0 0 196 32" fill="none" xmlns="http://www.w3.org/2000/svg">
<g id="Highlight">
<path id="Vector" d="M20.5641 25.7048V15.2608L12.1921 17.5568V25.7048H6.36816V3.38878H12.1921V12.7688L20.5641 10.4448V3.38878H26.3881V25.7048H20.5641ZM36.7053 3.38878V25.7048H30.8813V3.38878H36.7053ZM52.6556 21.4488C54.1396 21.4488 55.3716 21.1128 56.3236 20.4128C57.2756 19.7408 57.8356 18.7608 58.0316 17.4728H52.1236V12.6568H63.8836V15.7648C63.8836 17.5008 63.5756 19.0128 63.0156 20.3008C62.3996 21.6168 61.6156 22.6808 60.6076 23.5768C59.5716 24.4448 58.3676 25.1168 57.0236 25.5928C55.6516 26.0408 54.1956 26.2648 52.6836 26.2648C50.9756 26.2648 49.4076 25.9568 47.9516 25.3968C46.4676 24.8088 45.1796 23.9968 44.1156 22.9888C43.0236 21.9528 42.1836 20.7208 41.5676 19.2648C40.9236 17.8368 40.6156 16.2688 40.6156 14.5328C40.6156 12.8248 40.9236 11.2568 41.5676 9.80078C42.1836 8.37278 43.0236 7.14078 44.1436 6.07678C45.2076 5.06878 46.4956 4.25678 48.0076 3.66878C49.4916 3.10878 51.0876 2.80078 52.8236 2.80078C55.1196 2.80078 57.1356 3.27678 58.8156 4.20078C60.4956 5.15278 62.0076 6.55278 63.3516 8.40078L59.5156 11.6208C58.8156 10.3888 57.9196 9.40878 56.7996 8.68078C55.6516 7.95278 54.3076 7.58878 52.7396 7.58878C51.8996 7.58878 51.0876 7.75678 50.3316 8.09279C49.5476 8.42878 48.9036 8.90478 48.3436 9.49278C47.7556 10.1088 47.3076 10.8368 46.9716 11.6768C46.6076 12.5448 46.4396 13.4968 46.4396 14.5328C46.4396 15.5968 46.5796 16.5208 46.9156 17.3608C47.2236 18.2288 47.6716 18.9568 48.2316 19.5448C48.7916 20.1608 49.4356 20.6368 50.2196 20.9448C50.9476 21.2808 51.7596 21.4488 52.6556 21.4488ZM81.9902 25.7048V15.2608L73.6182 17.5568V25.7048H67.7942V3.38878H73.6182V12.7688L81.9902 10.4448V3.38878H87.8142V25.7048H81.9902ZM92.3074 3.38878H98.1314V20.8888H108.8V25.7048H92.3074V3.38878ZM117.696 3.38878V25.7048H111.872V3.38878H117.696ZM133.646 21.4488C135.13 21.4488 136.362 21.1128 137.314 20.4128C138.266 19.7408 138.826 18.7608 139.022 17.4728H133.114V12.6568H144.874V15.7648C144.874 17.5008 144.566 19.0128 144.006 20.3008C143.39 21.6168 142.606 22.6808 141.598 23.5768C140.562 24.4448 139.358 25.1168 138.014 25.5928C136.642 26.0408 135.186 26.2648 133.674 26.2648C131.966 26.2648 130.398 25.9568 128.942 25.3968C127.458 24.8088 126.17 23.9968 125.106 22.9888C124.014 21.9528 123.174 20.7208 122.558 19.2648C121.914 17.8368 121.606 16.2688 121.606 14.5328C121.606 12.8248 121.914 11.2568 122.558 9.80078C123.174 8.37278 124.014 7.14078 125.134 6.07678C126.198 5.06878 127.486 4.25678 128.998 3.66878C130.482 3.10878 132.078 2.80078 133.814 2.80078C136.11 2.80078 138.126 3.27678 139.806 4.20078C141.486 5.15278 142.998 6.55278 144.342 8.40078L140.506 11.6208C139.806 10.3888 138.91 9.40878 137.79 8.68078C136.642 7.95278 135.298 7.58878 133.73 7.58878C132.89 7.58878 132.078 7.75678 131.322 8.09279C130.538 8.42878 129.894 8.90478 129.334 9.49278C128.746 10.1088 128.298 10.8368 127.962 11.6768C127.598 12.5448 127.43 13.4968 127.43 14.5328C127.43 15.5968 127.57 16.5208 127.906 17.3608C128.214 18.2288 128.662 18.9568 129.222 19.5448C129.782 20.1608 130.426 20.6368 131.21 20.9448C131.938 21.2808 132.75 21.4488 133.646 21.4488ZM162.981 25.7048V15.2608L154.609 17.5568V25.7048H148.785V3.38878H154.609V12.7688L162.981 10.4448V3.38878H168.805V25.7048H162.981ZM185.086 8.20478V25.7048H179.262V8.20478H172.178V3.38878H192.17V8.20478H185.086Z" fill="white"/>
</g>
</svg>
