<svg width="393" height="680" viewBox="0 0 393 680" fill="none" xmlns="http://www.w3.org/2000/svg">
<g clip-path="url(#clip0_4192_11080)">
<path fill-rule="evenodd" clip-rule="evenodd" d="M24 0C10.7452 0 0 10.7452 0 24V656C0 669.255 10.7452 680 24 680H369C382.255 680 393 669.255 393 656V24C393 10.7452 382.255 0 369 0H24ZM58.5 138.155C51.8726 138.155 46.5 143.528 46.5 150.155V569.845C46.5 576.473 51.8726 581.845 58.5 581.845H333.5C340.127 581.845 345.5 576.473 345.5 569.845V150.155C345.5 143.528 340.127 138.155 333.5 138.155H58.5Z" fill="url(#paint0_linear_4192_11080)"/>
<g clip-path="url(#clip1_4192_11080)">
<path d="M47 487C48.9878 496.981 52.961 500.993 63 503C52.9586 505.007 48.9854 509.019 47 519C45.0122 509.019 41.039 505.005 31 503C41.0414 500.993 45.0146 496.981 47 487Z" fill="white"/>
</g>
<g clip-path="url(#clip2_4192_11080)">
<path d="M327 41C328.988 50.9812 332.961 54.9929 343 57C332.959 59.0071 328.985 63.0188 327 73C325.012 63.0188 321.039 59.0047 311 57C321.041 54.9929 325.015 50.9812 327 41Z" fill="white"/>
</g>
<circle cx="343.325" cy="78.54" r="4" fill="white"/>
<circle cx="22.3252" cy="437.54" r="3" fill="white"/>
<circle cx="46.3252" cy="374.54" r="5" fill="white"/>
<rect width="128.281" height="27.0175" transform="translate(19.1592 184.363) rotate(-25)" fill="white" fill-opacity="0.8"/>
<path d="M37.8012 193.971L38.831 195.117C38.423 195.803 37.6699 196.479 36.8431 196.864C35.3675 197.553 33.849 197.285 33.1135 195.708L31.518 192.286L30.2205 192.891L29.5325 191.415L30.8299 190.81L30.0707 189.182L32.0423 188.263L32.8015 189.891L35.689 188.545L36.377 190.02L33.4896 191.367L34.925 194.445C35.2572 195.157 35.9634 195.277 36.663 194.951C37.1464 194.725 37.4958 194.346 37.8012 193.971ZM42.1886 185.204C44.2874 184.225 45.9914 185.057 46.8634 186.927L48.7555 190.984L46.7839 191.904L44.9511 187.973C44.4172 186.828 43.516 186.49 42.3458 187.036C41.3027 187.522 40.6631 188.409 40.5593 189.68L42.5226 193.891L40.551 194.81L37.2828 187.801L36.1617 185.397L38.1333 184.478L39.3019 186.984L39.8298 188.116C39.9692 186.92 40.8403 185.833 42.1886 185.204ZM51.1612 181.005C53.7179 179.812 55.8087 180.278 56.823 182.453L58.0271 185.035C58.2643 185.544 58.5491 185.922 58.9679 186.222L56.9454 187.165C56.6741 186.982 56.424 186.712 56.3054 186.457L56.2995 186.444C56.0381 187.279 55.245 188.268 53.8967 188.897C52.3957 189.597 50.1708 189.906 49.3226 188.087C48.4744 186.268 50.1477 184.776 51.6487 184.076C52.997 183.447 54.2586 183.463 55.0717 183.811L54.8581 183.354C54.2531 182.056 53.1399 181.894 51.4608 182.677C50.5068 183.122 49.8029 183.605 49.1769 184.454L47.9868 183.429C48.6832 182.532 49.9146 181.586 51.1612 181.005ZM55.7623 185.193L55.6793 185.015C54.7722 184.431 53.6342 184.714 52.7311 185.135C51.917 185.515 50.8103 186.263 51.2433 187.192C51.6763 188.12 52.9669 187.766 53.781 187.387C54.6841 186.965 55.6263 186.263 55.7623 185.193ZM62.8569 184.409L60.8853 185.328L57.6171 178.319L59.5887 177.4L60.164 178.634C60.3034 177.438 61.1746 176.351 62.5229 175.722C64.6217 174.743 66.3257 175.575 67.1976 177.445L69.0898 181.502L67.1182 182.422L65.2853 178.491C64.7515 177.346 63.8503 177.008 62.6801 177.554C61.637 178.04 60.9974 178.927 60.8936 180.198L62.8569 184.409ZM77.3814 177.636L73.4486 175.645L72.4475 177.815L73.2601 179.558L71.2885 180.477L66.8992 171.064L68.8708 170.145L71.5815 175.958L73.7697 170.787L76.0975 169.702L74.3182 173.923L79.5566 176.622L77.3814 177.636ZM82.367 169.968C84.6269 169.069 86.5448 168.965 87.2448 170.466C87.8735 171.814 87.0751 173.456 84.5184 174.649C82.6994 175.497 80.8238 175.659 79.5089 175.297L79.9172 173.681C80.9329 173.967 82.3557 173.83 83.8694 173.124C84.9887 172.602 85.7461 172.001 85.491 171.454C85.2538 170.945 84.3889 171.116 82.8532 171.708C80.8163 172.488 78.7083 172.882 77.9788 171.318C77.3441 169.957 78.1653 168.397 80.8111 167.163C82.2866 166.475 83.8671 166.311 84.999 166.48L84.6772 168.148C83.7454 168.009 82.6685 168.124 81.4092 168.712C80.5952 169.091 79.4969 169.758 79.7639 170.331C80.013 170.865 81.0085 170.509 82.367 169.968ZM90.0811 163.088C90.3817 161.508 91.665 159.81 93.7384 158.843C95.8627 157.853 98.4725 157.704 99.3385 159.561C100.05 161.088 99.0103 162.61 97.2903 164.202C95.8918 165.52 94.924 166.699 94.9221 167.459L101.765 164.268L102.531 165.909L93.1941 170.262L92.773 169.359C92.2563 167.587 93.2074 165.409 95.4431 163.329C96.6745 162.151 97.6397 161.298 97.2957 160.56C96.9398 159.797 95.5984 159.943 94.4281 160.488C93.0798 161.117 92.2468 162.187 91.7936 163.606L90.0811 163.088ZM109.584 162.96C106.226 164.526 103.353 163.713 101.971 160.749C100.589 157.786 101.813 155.062 105.171 153.497C108.542 151.925 111.414 152.738 112.796 155.702C114.178 158.665 112.955 161.388 109.584 162.96ZM108.778 161.199C110.839 160.238 111.636 158.627 110.723 156.668C109.809 154.71 108.063 154.285 106.002 155.246C103.929 156.213 103.131 157.824 104.045 159.782C104.958 161.741 106.705 162.166 108.778 161.199ZM113.136 152.338C113.436 150.757 114.72 149.059 116.793 148.093C118.917 147.102 121.527 146.953 122.393 148.811C123.105 150.337 122.065 151.86 120.345 153.451C118.946 154.769 117.979 155.949 117.977 156.708L124.82 153.517L125.585 155.158L116.249 159.512L115.828 158.609C115.311 156.836 116.262 154.658 118.498 152.578C119.729 151.4 120.694 150.547 120.35 149.81C119.994 149.046 118.653 149.192 117.483 149.738C116.134 150.366 115.302 151.436 114.848 152.855L113.136 152.338ZM135.645 146.27L136.381 147.848L134.575 148.69L135.447 150.56L133.462 151.485L132.59 149.615L125.849 152.759L125.297 151.576L129.488 142.498L131.294 141.656L133.839 147.113L135.645 146.27ZM127.81 149.924L131.867 148.032L130.26 144.585L127.81 149.924Z" fill="#2D3541"/>
<path d="M42.051 124.5C41.2048 121.5 42.3529 118 46 118C49.647 118 50.7952 121.5 49.949 124.5C49.353 126.613 47.7776 131.454 46.898 134.132C46.736 134.626 47.0632 135.145 47.5133 135.406C47.9629 135.667 48.5628 135.679 48.9102 135.292C50.7971 133.194 54.2167 129.412 55.7548 127.841C57.9382 125.611 61.5532 124.852 63.3768 128C65.2003 131.148 62.7335 133.889 59.7038 134.659C57.5699 135.201 52.5758 136.262 49.809 136.841C49.2994 136.948 49.0097 137.481 49.0097 138C49.0097 138.519 49.2994 139.052 49.809 139.159C52.5757 139.738 57.57 140.799 59.7038 141.341C62.7335 142.111 65.2003 144.852 63.3768 148C61.5533 151.148 57.9382 150.389 55.7548 148.159C54.2167 146.588 50.7971 142.806 48.9102 140.708C48.5628 140.321 47.9629 140.333 47.5133 140.594C47.0632 140.855 46.736 141.374 46.898 141.868C47.7776 144.546 49.353 149.387 49.949 151.5C50.7952 154.5 49.6471 158 46 158C42.353 158 41.2048 154.5 42.051 151.5C42.647 149.387 44.2224 144.546 45.102 141.868C45.264 141.374 44.9368 140.855 44.4867 140.594C44.0371 140.333 43.4372 140.321 43.0898 140.708C41.2029 142.806 37.7833 146.588 36.2452 148.159C34.0618 150.389 30.4467 151.148 28.6232 148C26.7997 144.852 29.2665 142.111 32.2962 141.341C34.43 140.799 39.4242 139.738 42.191 139.159C42.7006 139.052 42.9902 138.519 42.9902 138C42.9902 137.481 42.7006 136.948 42.191 136.841C39.4242 136.262 34.43 135.201 32.2962 134.659C29.2665 133.889 26.7997 131.148 28.6232 128C30.4467 124.852 34.0618 125.611 36.2452 127.841C37.7833 129.412 41.2029 133.194 43.0898 135.292C43.4372 135.679 44.0371 135.667 44.4867 135.406C44.9368 135.145 45.264 134.626 45.1019 134.132C44.2223 131.454 42.647 126.613 42.051 124.5Z" fill="white"/>
<path d="M342.561 213.55C341.968 211.45 342.772 209 345.325 209C347.878 209 348.682 211.45 348.089 213.55C347.672 215.029 346.569 218.418 345.954 220.293C345.84 220.638 346.069 221.001 346.384 221.184C346.699 221.367 347.119 221.375 347.362 221.105C348.683 219.636 351.077 216.989 352.153 215.889C353.682 214.327 356.212 213.796 357.489 216C358.765 218.204 357.039 220.123 354.918 220.661C353.424 221.041 349.928 221.783 347.991 222.189C347.635 222.264 347.432 222.637 347.432 223C347.432 223.363 347.635 223.736 347.991 223.811C349.928 224.217 353.424 224.959 354.918 225.339C357.039 225.877 358.765 227.796 357.489 230C356.212 232.204 353.682 231.673 352.153 230.111C351.077 229.011 348.683 226.364 347.362 224.895C347.119 224.625 346.699 224.633 346.384 224.816C346.069 224.999 345.84 225.362 345.954 225.707C346.569 227.582 347.672 230.971 348.089 232.45C348.682 234.55 347.878 237 345.325 237C342.772 237 341.968 234.55 342.561 232.45C342.978 230.971 344.081 227.582 344.696 225.707C344.81 225.362 344.581 224.999 344.266 224.816C343.951 224.633 343.531 224.625 343.288 224.895C341.967 226.364 339.573 229.011 338.497 230.111C336.968 231.673 334.438 232.204 333.161 230C331.885 227.796 333.612 225.877 335.732 225.339C337.226 224.959 340.722 224.217 342.659 223.811C343.015 223.736 343.218 223.363 343.218 223C343.218 222.637 343.015 222.264 342.659 222.189C340.722 221.783 337.226 221.041 335.732 220.661C333.612 220.123 331.885 218.204 333.161 216C334.438 213.796 336.968 214.327 338.497 215.889C339.573 216.989 341.967 219.636 343.288 221.105C343.531 221.375 343.951 221.367 344.266 221.184C344.581 221.001 344.81 220.638 344.696 220.293C344.081 218.418 342.978 215.029 342.561 213.55Z" fill="white"/>
<path d="M317.032 573.65C315.255 567.35 317.666 560 325.325 560C332.984 560 335.395 567.35 333.618 573.65C332.366 578.087 329.058 588.253 327.211 593.878C326.871 594.914 327.558 596.004 328.503 596.553C329.447 597.102 330.707 597.125 331.436 596.314C335.399 591.908 342.58 583.966 345.81 580.666C350.395 575.982 357.987 574.389 361.816 581C365.646 587.611 360.465 593.368 354.103 594.984C349.622 596.122 339.134 598.349 333.324 599.567C332.254 599.791 331.646 600.91 331.646 602C331.646 603.09 332.254 604.209 333.324 604.433C339.134 605.651 349.622 607.878 354.103 609.016C360.465 610.632 365.646 616.389 361.816 623C357.987 629.611 350.395 628.018 345.81 623.334C342.58 620.034 335.399 612.092 331.437 607.686C330.707 606.875 329.447 606.898 328.503 607.447C327.558 607.996 326.871 609.086 327.211 610.122C329.058 615.747 332.366 625.913 333.618 630.35C335.395 636.65 332.984 644 325.325 644C317.666 644 315.255 636.65 317.032 630.35C318.284 625.913 321.592 615.747 323.439 610.122C323.78 609.086 323.092 607.996 322.147 607.447C321.203 606.898 319.943 606.875 319.214 607.686C315.251 612.092 308.07 620.034 304.84 623.334C300.255 628.018 292.663 629.611 288.834 623C285.005 616.389 290.185 610.632 296.547 609.016C301.028 607.878 311.516 605.651 317.326 604.433C318.396 604.209 319.005 603.09 319.005 602C319.005 600.91 318.396 599.791 317.326 599.567C311.516 598.349 301.028 596.122 296.547 594.984C290.185 593.368 285.004 587.611 288.834 581C292.663 574.389 300.255 575.982 304.84 580.666C308.07 583.966 315.251 591.908 319.214 596.314C319.943 597.125 321.203 597.102 322.147 596.553C323.092 596.004 323.78 594.914 323.439 593.878C321.592 588.253 318.284 578.087 317.032 573.65Z" fill="white"/>
</g>
<defs>
<linearGradient id="paint0_linear_4192_11080" x1="-7.35462e-06" y1="33.9011" x2="367.352" y2="648.105" gradientUnits="userSpaceOnUse">
<stop stop-color="#FF9DC7"/>
<stop offset="1" stop-color="#FCE4A4"/>
</linearGradient>
<clipPath id="clip0_4192_11080">
<rect width="393" height="680" rx="24" fill="white"/>
</clipPath>
<clipPath id="clip1_4192_11080">
<rect width="32" height="32" fill="white" transform="translate(31 487)"/>
</clipPath>
<clipPath id="clip2_4192_11080">
<rect width="32" height="32" fill="white" transform="translate(311 41)"/>
</clipPath>
</defs>
</svg>
