<svg width="393" height="680" viewBox="0 0 393 680" fill="none" xmlns="http://www.w3.org/2000/svg">
<g clip-path="url(#clip0_4192_11080)">
<path fill-rule="evenodd" clip-rule="evenodd" d="M24 0C10.7452 0 0 10.7452 0 24V656C0 669.255 10.7452 680 24 680H369C382.255 680 393 669.255 393 656V24C393 10.7452 382.255 0 369 0H24ZM58.5 138.155C51.8726 138.155 46.5 143.528 46.5 150.155V569.845C46.5 576.473 51.8726 581.845 58.5 581.845H333.5C340.127 581.845 345.5 576.473 345.5 569.845V150.155C345.5 143.528 340.127 138.155 333.5 138.155H58.5Z" fill="url(#paint0_linear_4192_11080)"/>
<g clip-path="url(#clip1_4192_11080)">
<path d="M47 487C48.9878 496.981 52.961 500.993 63 503C52.9586 505.007 48.9854 509.019 47 519C45.0122 509.019 41.039 505.005 31 503C41.0414 500.993 45.0146 496.981 47 487Z" fill="white"/>
</g>
<g clip-path="url(#clip2_4192_11080)">
<path d="M327 41C328.988 50.9812 332.961 54.9929 343 57C332.959 59.0071 328.985 63.0188 327 73C325.012 63.0188 321.039 59.0047 311 57C321.041 54.9929 325.015 50.9812 327 41Z" fill="white"/>
</g>
<circle cx="343.325" cy="78.5391" r="4" fill="white"/>
<circle cx="22.3252" cy="437.539" r="3" fill="white"/>
<circle cx="46.3252" cy="374.539" r="5" fill="white"/>
<path d="M42.051 124.5C41.2048 121.5 42.3529 118 46 118C49.647 118 50.7952 121.5 49.949 124.5C49.353 126.613 47.7776 131.454 46.898 134.132C46.736 134.626 47.0632 135.145 47.5133 135.406C47.9629 135.667 48.5628 135.679 48.9102 135.292C50.7971 133.194 54.2167 129.412 55.7548 127.841C57.9382 125.611 61.5532 124.852 63.3768 128C65.2003 131.148 62.7335 133.889 59.7038 134.659C57.5699 135.201 52.5758 136.262 49.809 136.841C49.2994 136.948 49.0097 137.481 49.0097 138C49.0097 138.519 49.2994 139.052 49.809 139.159C52.5757 139.738 57.57 140.799 59.7038 141.341C62.7335 142.111 65.2003 144.852 63.3768 148C61.5533 151.148 57.9382 150.389 55.7548 148.159C54.2167 146.588 50.7971 142.806 48.9102 140.708C48.5628 140.321 47.9629 140.333 47.5133 140.594C47.0632 140.855 46.736 141.374 46.898 141.868C47.7776 144.546 49.353 149.387 49.949 151.5C50.7952 154.5 49.6471 158 46 158C42.353 158 41.2048 154.5 42.051 151.5C42.647 149.387 44.2224 144.546 45.102 141.868C45.264 141.374 44.9368 140.855 44.4867 140.594C44.0371 140.333 43.4372 140.321 43.0898 140.708C41.2029 142.806 37.7833 146.588 36.2452 148.159C34.0618 150.389 30.4467 151.148 28.6232 148C26.7997 144.852 29.2665 142.111 32.2962 141.341C34.43 140.799 39.4242 139.738 42.191 139.159C42.7006 139.052 42.9902 138.519 42.9902 138C42.9902 137.481 42.7006 136.948 42.191 136.841C39.4242 136.262 34.43 135.201 32.2962 134.659C29.2665 133.889 26.7997 131.148 28.6232 128C30.4467 124.852 34.0618 125.611 36.2452 127.841C37.7833 129.412 41.2029 133.194 43.0898 135.292C43.4372 135.679 44.0371 135.667 44.4867 135.406C44.9368 135.145 45.264 134.626 45.1019 134.132C44.2223 131.454 42.647 126.613 42.051 124.5Z" fill="white"/>
<path d="M342.561 213.55C341.968 211.45 342.772 209 345.325 209C347.878 209 348.682 211.45 348.089 213.55C347.672 215.029 346.569 218.418 345.954 220.293C345.84 220.638 346.069 221.001 346.384 221.184C346.699 221.367 347.119 221.375 347.362 221.105C348.683 219.636 351.077 216.989 352.153 215.889C353.682 214.327 356.212 213.796 357.489 216C358.765 218.204 357.039 220.123 354.918 220.661C353.424 221.041 349.928 221.783 347.991 222.189C347.635 222.264 347.432 222.637 347.432 223C347.432 223.363 347.635 223.736 347.991 223.811C349.928 224.217 353.424 224.959 354.918 225.339C357.039 225.877 358.765 227.796 357.489 230C356.212 232.204 353.682 231.673 352.153 230.111C351.077 229.011 348.683 226.364 347.362 224.895C347.119 224.625 346.699 224.633 346.384 224.816C346.069 224.999 345.84 225.362 345.954 225.707C346.569 227.582 347.672 230.971 348.089 232.45C348.682 234.55 347.878 237 345.325 237C342.772 237 341.968 234.55 342.561 232.45C342.978 230.971 344.081 227.582 344.696 225.707C344.81 225.362 344.581 224.999 344.266 224.816C343.951 224.633 343.531 224.625 343.288 224.895C341.967 226.364 339.573 229.011 338.497 230.111C336.968 231.673 334.438 232.204 333.161 230C331.885 227.796 333.612 225.877 335.732 225.339C337.226 224.959 340.722 224.217 342.659 223.811C343.015 223.736 343.218 223.363 343.218 223C343.218 222.637 343.015 222.264 342.659 222.189C340.722 221.783 337.226 221.041 335.732 220.661C333.612 220.123 331.885 218.204 333.161 216C334.438 213.796 336.968 214.327 338.497 215.889C339.573 216.989 341.967 219.636 343.288 221.105C343.531 221.375 343.951 221.367 344.266 221.184C344.581 221.001 344.81 220.638 344.696 220.293C344.081 218.418 342.978 215.029 342.561 213.55Z" fill="white"/>
<path d="M317.032 573.65C315.255 567.35 317.667 560 325.325 560C332.984 560 335.395 567.35 333.618 573.65C332.367 578.087 329.058 588.253 327.211 593.878C326.871 594.914 327.558 596.004 328.503 596.553C329.448 597.102 330.707 597.125 331.437 596.314C335.399 591.908 342.58 583.966 345.811 580.666C350.396 575.982 357.987 574.389 361.817 581C365.646 587.611 360.466 593.368 354.103 594.984C349.622 596.122 339.134 598.349 333.324 599.567C332.254 599.791 331.646 600.91 331.646 602C331.646 603.09 332.254 604.209 333.324 604.433C339.134 605.651 349.622 607.878 354.103 609.016C360.466 610.632 365.646 616.389 361.817 623C357.987 629.611 350.396 628.018 345.811 623.334C342.581 620.034 335.399 612.092 331.437 607.686C330.707 606.875 329.448 606.898 328.503 607.447C327.558 607.996 326.871 609.086 327.211 610.122C329.058 615.747 332.367 625.913 333.618 630.35C335.395 636.65 332.984 644 325.325 644C317.667 644 315.255 636.65 317.033 630.35C318.284 625.913 321.592 615.747 323.44 610.122C323.78 609.086 323.093 607.996 322.147 607.447C321.203 606.898 319.944 606.875 319.214 607.686C315.251 612.092 308.07 620.034 304.84 623.334C300.255 628.018 292.664 629.611 288.834 623C285.005 616.389 290.185 610.632 296.547 609.016C301.028 607.878 311.516 605.651 317.326 604.433C318.397 604.209 319.005 603.09 319.005 602C319.005 600.91 318.397 599.791 317.326 599.567C311.516 598.349 301.028 596.122 296.547 594.984C290.185 593.368 285.005 587.611 288.834 581C292.663 574.389 300.255 575.982 304.84 580.666C308.07 583.966 315.251 591.908 319.214 596.314C319.944 597.125 321.203 597.102 322.147 596.553C323.093 596.004 323.78 594.914 323.439 593.878C321.592 588.253 318.284 578.087 317.032 573.65Z" fill="white"/>
</g>
<defs>
<linearGradient id="paint0_linear_4192_11080" x1="-7.35462e-06" y1="33.9011" x2="367.352" y2="648.105" gradientUnits="userSpaceOnUse">
<stop stop-color="#FF9DC7"/>
<stop offset="1" stop-color="#FCE4A4"/>
</linearGradient>
<clipPath id="clip0_4192_11080">
<rect width="393" height="680" rx="24" fill="white"/>
</clipPath>
<clipPath id="clip1_4192_11080">
<rect width="32" height="32" fill="white" transform="translate(31 487)"/>
</clipPath>
<clipPath id="clip2_4192_11080">
<rect width="32" height="32" fill="white" transform="translate(311 41)"/>
</clipPath>
</defs>
</svg>
