<svg width="393" height="680" viewBox="0 0 393 680" fill="none" xmlns="http://www.w3.org/2000/svg">
<g clip-path="url(#clip0_4173_12519)">
<path fill-rule="evenodd" clip-rule="evenodd" d="M24 0C10.7452 0 0 10.7452 0 24V656C0 669.255 10.7452 680 24 680H369C382.255 680 393 669.255 393 656V24C393 10.7452 382.255 0 369 0H24ZM58.5 138.155C51.8726 138.155 46.5 143.528 46.5 150.155V569.845C46.5 576.473 51.8726 581.845 58.5 581.845H333.5C340.127 581.845 345.5 576.473 345.5 569.845V150.155C345.5 143.528 340.127 138.155 333.5 138.155H58.5Z" fill="url(#paint0_linear_4173_12519)"/>
<g clip-path="url(#clip1_4173_12519)">
<path d="M47 487C48.9878 496.981 52.961 500.993 63 503C52.9586 505.007 48.9854 509.019 47 519C45.0122 509.019 41.039 505.005 31 503C41.0414 500.993 45.0146 496.981 47 487Z" fill="white"/>
</g>
<g clip-path="url(#clip2_4173_12519)">
<path d="M327 41C328.988 50.9812 332.961 54.9929 343 57C332.959 59.0071 328.985 63.0188 327 73C325.012 63.0188 321.039 59.0047 311 57C321.041 54.9929 325.015 50.9812 327 41Z" fill="white"/>
</g>
<circle cx="343.325" cy="78.5391" r="4" fill="white"/>
<circle cx="22.3252" cy="437.539" r="3" fill="white"/>
<circle cx="46.3252" cy="374.539" r="5" fill="white"/>
<g clip-path="url(#clip3_4173_12519)">
<path d="M46.207 118C45.1258 118 44.2712 118.917 44.3467 119.995L45.485 136.257L34.7911 123.953C34.0818 123.137 32.8294 123.093 32.0649 123.858C31.3004 124.622 31.3441 125.875 32.1602 126.584L44.4639 137.278L28.2021 136.14C27.1236 136.064 26.207 136.919 26.207 138C26.207 139.081 27.1236 139.936 28.2022 139.86L44.4639 138.722L32.1602 149.416C31.3441 150.125 31.3004 151.378 32.0649 152.142C32.8294 152.907 34.0818 152.863 34.7911 152.047L45.485 139.743L44.3467 156.005C44.2712 157.083 45.1258 158 46.207 158C47.2883 158 48.1429 157.083 48.0674 156.005L46.9291 139.743L57.6229 152.047C58.3322 152.863 59.5846 152.907 60.3492 152.142C61.1137 151.378 61.0699 150.125 60.2539 149.416L47.9501 138.722L64.2119 139.86C65.2905 139.936 66.207 139.081 66.207 138C66.207 136.919 65.2905 136.064 64.2119 136.14L47.9501 137.278L60.2539 126.584C61.0699 125.875 61.1137 124.622 60.3492 123.858C59.5846 123.093 58.3322 123.137 57.6229 123.953L46.929 136.257L48.0674 119.995C48.1429 118.917 47.2883 118 46.207 118Z" fill="white"/>
</g>
<g clip-path="url(#clip4_4173_12519)">
<path d="M345 209C344.243 209 343.645 209.642 343.698 210.397L344.495 221.78L337.009 213.167C336.512 212.596 335.636 212.565 335.101 213.101C334.565 213.636 334.596 214.512 335.167 215.009L343.78 222.495L332.397 221.698C331.642 221.645 331 222.243 331 223C331 223.757 331.642 224.355 332.397 224.302L343.78 223.505L335.167 230.991C334.596 231.488 334.565 232.364 335.101 232.899C335.636 233.435 336.512 233.404 337.009 232.833L344.495 224.22L343.698 235.603C343.645 236.358 344.243 237 345 237C345.757 237 346.355 236.358 346.302 235.603L345.505 224.22L352.991 232.833C353.488 233.404 354.364 233.435 354.899 232.899C355.435 232.364 355.404 231.488 354.833 230.991L346.22 223.505L357.603 224.302C358.358 224.355 359 223.757 359 223C359 222.243 358.358 221.645 357.603 221.698L346.22 222.495L354.833 215.009C355.404 214.512 355.435 213.636 354.899 213.101C354.364 212.565 353.488 212.596 352.991 213.167L345.505 221.78L346.302 210.397C346.355 209.642 345.757 209 345 209Z" fill="white"/>
</g>
<g clip-path="url(#clip5_4173_12519)">
<path d="M325 560C322.729 560 320.935 561.925 321.093 564.19L323.484 598.339L301.027 572.502C299.537 570.788 296.907 570.696 295.302 572.302C293.696 573.907 293.788 576.537 295.502 578.027L321.339 600.484L287.19 598.093C284.925 597.935 283 599.729 283 602C283 604.271 284.925 606.065 287.19 605.907L321.339 603.516L295.502 625.973C293.788 627.463 293.696 630.093 295.302 631.698C296.907 633.304 299.537 633.212 301.027 631.498L323.484 605.661L321.093 639.81C320.935 642.075 322.729 644 325 644C327.271 644 329.065 642.075 328.907 639.81L326.516 605.661L348.973 631.498C350.463 633.212 353.093 633.304 354.698 631.698C356.304 630.093 356.212 627.463 354.498 625.973L328.661 603.516L362.81 605.907C365.075 606.065 367 604.271 367 602C367 599.729 365.075 597.935 362.81 598.093L328.661 600.484L354.498 578.027C356.212 576.537 356.304 573.907 354.698 572.302C353.093 570.696 350.463 570.788 348.973 572.502L326.516 598.339L328.907 564.19C329.065 561.925 327.271 560 325 560Z" fill="white"/>
</g>
</g>
<defs>
<linearGradient id="paint0_linear_4173_12519" x1="-7.35462e-06" y1="33.9011" x2="367.352" y2="648.105" gradientUnits="userSpaceOnUse">
<stop stop-color="#DF9AFF"/>
<stop offset="1" stop-color="#BAC5FF"/>
</linearGradient>
<clipPath id="clip0_4173_12519">
<rect width="393" height="680" rx="24" fill="white"/>
</clipPath>
<clipPath id="clip1_4173_12519">
<rect width="32" height="32" fill="white" transform="translate(31 487)"/>
</clipPath>
<clipPath id="clip2_4173_12519">
<rect width="32" height="32" fill="white" transform="translate(311 41)"/>
</clipPath>
<clipPath id="clip3_4173_12519">
<rect width="40" height="40" fill="white" transform="translate(26.207 118)"/>
</clipPath>
<clipPath id="clip4_4173_12519">
<rect width="28" height="28" fill="white" transform="translate(331 209)"/>
</clipPath>
<clipPath id="clip5_4173_12519">
<rect width="84" height="84" fill="white" transform="translate(283 560)"/>
</clipPath>
</defs>
</svg>
