<svg width="393" height="680" viewBox="0 0 393 680" fill="none" xmlns="http://www.w3.org/2000/svg">
<g clip-path="url(#clip0_4173_12487)">
<path fill-rule="evenodd" clip-rule="evenodd" d="M24 0C10.7452 0 0 10.7452 0 24V656C0 669.255 10.7452 680 24 680H369C382.255 680 393 669.255 393 656V24C393 10.7452 382.255 0 369 0H24ZM58.5 138.155C51.8726 138.155 46.5 143.528 46.5 150.155V569.845C46.5 576.473 51.8726 581.845 58.5 581.845H333.5C340.127 581.845 345.5 576.473 345.5 569.845V150.155C345.5 143.528 340.127 138.155 333.5 138.155H58.5Z" fill="url(#paint0_linear_4173_12487)"/>
<g clip-path="url(#clip1_4173_12487)">
<path d="M37.7157 118L46 124.297L54.2843 118L55.6895 128.31L66 129.716L59.7031 138L66 146.284L55.6895 147.69L54.2843 158L46 151.703L37.7157 158L36.3105 147.69L26 146.284L32.2969 138L26 129.716L36.3105 128.31L37.7157 118Z" fill="white"/>
</g>
<g clip-path="url(#clip2_4173_12487)">
<path d="M340.201 209L346 213.408L351.799 209L352.783 216.217L360 217.201L355.592 223L360 228.799L352.783 229.783L351.799 237L346 232.592L340.201 237L339.217 229.783L332 228.799L336.408 223L332 217.201L339.217 216.217L340.201 209Z" fill="white"/>
</g>
<rect width="128.281" height="27.0175" transform="translate(19.1592 184.363) rotate(-25)" fill="white" fill-opacity="0.8"/>
<path d="M37.8012 193.971L38.8311 195.117C38.4231 195.803 37.6699 196.479 36.8431 196.864C35.3676 197.553 33.8491 197.285 33.1136 195.708L31.518 192.286L30.2206 192.891L29.5325 191.415L30.83 190.81L30.0707 189.182L32.0424 188.263L32.8016 189.891L35.6891 188.545L36.3771 190.02L33.4896 191.367L34.9251 194.445C35.2572 195.157 35.9635 195.277 36.6631 194.951C37.1465 194.725 37.4959 194.346 37.8012 193.971ZM42.1887 185.204C44.2875 184.225 45.9915 185.057 46.8634 186.927L48.7556 190.984L46.7839 191.904L44.9511 187.973C44.4173 186.828 43.5161 186.49 42.3458 187.036C41.3028 187.522 40.6632 188.409 40.5594 189.68L42.5227 193.891L40.5511 194.81L37.2828 187.801L36.1618 185.397L38.1334 184.478L39.3019 186.984L39.8298 188.116C39.9692 186.92 40.8403 185.833 42.1887 185.204ZM51.1612 181.005C53.718 179.812 55.8087 180.278 56.823 182.453L58.0271 185.035C58.2644 185.544 58.5492 185.922 58.9679 186.222L56.9454 187.165C56.6742 186.982 56.4241 186.712 56.3055 186.457L56.2995 186.444C56.0381 187.279 55.2451 188.268 53.8967 188.897C52.3958 189.597 50.1708 189.906 49.3226 188.087C48.4744 186.268 50.1477 184.776 51.6487 184.076C52.997 183.447 54.2587 183.463 55.0717 183.811L54.8582 183.354C54.2532 182.056 53.14 181.894 51.4609 182.677C50.5069 183.122 49.803 183.605 49.177 184.454L47.9869 183.429C48.6832 182.532 49.9147 181.586 51.1612 181.005ZM55.7624 185.193L55.6793 185.015C54.7722 184.431 53.6343 184.714 52.7312 185.135C51.9171 185.515 50.8104 186.263 51.2434 187.192C51.6764 188.12 52.9669 187.766 53.781 187.387C54.6842 186.965 55.6264 186.263 55.7624 185.193ZM62.857 184.409L60.8854 185.328L57.6171 178.319L59.5887 177.4L60.1641 178.634C60.3035 177.438 61.1746 176.351 62.5229 175.722C64.6218 174.743 66.3258 175.575 67.1977 177.445L69.0899 181.502L67.1182 182.422L65.2854 178.491C64.7516 177.346 63.8504 177.008 62.6801 177.554C61.6371 178.04 60.9975 178.927 60.8937 180.198L62.857 184.409ZM77.3815 177.636L73.4487 175.645L72.4475 177.815L73.2602 179.558L71.2885 180.477L66.8992 171.064L68.8709 170.145L71.5815 175.958L73.7698 170.787L76.0976 169.702L74.3183 173.923L79.5566 176.622L77.3815 177.636ZM82.367 169.968C84.6269 169.069 86.5449 168.965 87.2448 170.466C87.8736 171.814 87.0752 173.456 84.5185 174.649C82.6995 175.497 80.8239 175.659 79.5089 175.297L79.9172 173.681C80.9329 173.967 82.3557 173.83 83.8694 173.124C84.9888 172.602 85.7461 172.001 85.4911 171.454C85.2538 170.945 84.3889 171.116 82.8532 171.708C80.8164 172.488 78.7084 172.882 77.9788 171.318C77.3441 169.957 78.1654 168.397 80.8111 167.163C82.2867 166.475 83.8672 166.311 84.9991 166.48L84.6772 168.148C83.7454 168.009 82.6686 168.124 81.4093 168.712C80.5952 169.091 79.497 169.758 79.7639 170.331C80.013 170.865 81.0086 170.509 82.367 169.968ZM90.0811 163.088C90.3817 161.508 91.6651 159.81 93.7385 158.843C95.8627 157.853 98.4726 157.704 99.3386 159.561C100.05 161.088 99.0104 162.61 97.2904 164.202C95.8918 165.52 94.9241 166.699 94.9221 167.459L101.766 164.268L102.531 165.909L93.1942 170.262L92.773 169.359C92.2563 167.587 93.2075 165.409 95.4431 163.329C96.6746 162.151 97.6397 161.298 97.2957 160.56C96.9398 159.797 95.5984 159.943 94.4282 160.488C93.0798 161.117 92.2469 162.187 91.7937 163.606L90.0811 163.088ZM109.584 162.96C106.226 164.526 103.354 163.713 101.971 160.749C100.589 157.786 101.813 155.062 105.171 153.497C108.542 151.925 111.414 152.738 112.796 155.702C114.178 158.665 112.955 161.388 109.584 162.96ZM108.778 161.199C110.839 160.238 111.636 158.627 110.723 156.668C109.809 154.71 108.063 154.285 106.002 155.246C103.929 156.213 103.131 157.824 104.045 159.782C104.958 161.741 106.705 162.166 108.778 161.199ZM113.136 152.338C113.436 150.757 114.72 149.059 116.793 148.093C118.917 147.102 121.527 146.953 122.393 148.811C123.105 150.337 122.065 151.86 120.345 153.451C118.947 154.769 117.979 155.949 117.977 156.708L124.82 153.517L125.585 155.158L116.249 159.512L115.828 158.609C115.311 156.836 116.262 154.658 118.498 152.578C119.729 151.4 120.694 150.547 120.35 149.81C119.995 149.046 118.653 149.192 117.483 149.738C116.135 150.366 115.302 151.436 114.848 152.855L113.136 152.338ZM135.645 146.27L136.381 147.848L134.575 148.69L135.447 150.56L133.462 151.485L132.59 149.615L125.849 152.759L125.297 151.576L129.488 142.498L131.295 141.656L133.839 147.113L135.645 146.27ZM127.81 149.924L131.868 148.032L130.26 144.585L127.81 149.924Z" fill="#2D3541"/>
<g clip-path="url(#clip3_4173_12487)">
<path d="M47 487C48.9878 496.981 52.961 500.993 63 503C52.9586 505.007 48.9854 509.019 47 519C45.0122 509.019 41.039 505.005 31 503C41.0414 500.993 45.0146 496.981 47 487Z" fill="white"/>
</g>
<g clip-path="url(#clip4_4173_12487)">
<path d="M327 41C328.988 50.9812 332.961 54.9929 343 57C332.959 59.0071 328.985 63.0188 327 73C325.012 63.0188 321.039 59.0047 311 57C321.041 54.9929 325.015 50.9812 327 41Z" fill="white"/>
</g>
<circle cx="343.325" cy="78.54" r="4" fill="white"/>
<circle cx="22.3252" cy="437.54" r="3" fill="white"/>
<circle cx="46.3252" cy="374.54" r="5" fill="white"/>
<g clip-path="url(#clip5_4173_12487)">
<path d="M308.603 560L326 573.224L343.397 560L346.348 581.652L368 584.603L354.776 602L368 619.397L346.348 622.348L343.397 644L326 630.776L308.603 644L305.652 622.348L284 619.397L297.224 602L284 584.603L305.652 581.652L308.603 560Z" fill="white"/>
</g>
</g>
<defs>
<linearGradient id="paint0_linear_4173_12487" x1="43.0821" y1="33.961" x2="381.577" y2="680" gradientUnits="userSpaceOnUse">
<stop stop-color="#FFB864"/>
<stop offset="1" stop-color="#FFEB85"/>
</linearGradient>
<clipPath id="clip0_4173_12487">
<rect width="393" height="680" rx="24" fill="white"/>
</clipPath>
<clipPath id="clip1_4173_12487">
<rect width="40" height="40" fill="white" transform="translate(26 118)"/>
</clipPath>
<clipPath id="clip2_4173_12487">
<rect width="28" height="28" fill="white" transform="translate(332 209)"/>
</clipPath>
<clipPath id="clip3_4173_12487">
<rect width="32" height="32" fill="white" transform="translate(31 487)"/>
</clipPath>
<clipPath id="clip4_4173_12487">
<rect width="32" height="32" fill="white" transform="translate(311 41)"/>
</clipPath>
<clipPath id="clip5_4173_12487">
<rect width="84" height="84" fill="white" transform="translate(284 560)"/>
</clipPath>
</defs>
</svg>
