<svg width="29" height="28" viewBox="0 0 29 28" fill="none" xmlns="http://www.w3.org/2000/svg">
<g clip-path="url(#clip0_5513_1821)">
<path d="M20.4974 23.825C19.3344 24.9524 18.0645 24.7744 16.8422 24.2403C15.5486 23.6944 14.3618 23.6707 12.997 24.2403C11.288 24.9761 10.3861 24.7625 9.36544 23.825C3.57395 17.8554 4.42843 8.76471 11.0032 8.43241C12.6054 8.51548 13.7209 9.31063 14.6585 9.38183C16.0589 9.09701 17.3999 8.27813 18.8953 8.38494C20.6873 8.52735 22.0403 9.23942 22.9303 10.5211C19.2276 12.7404 20.1058 17.6181 23.5 18.9829C22.8235 20.7631 21.9453 22.5314 20.4856 23.8368L20.4974 23.825ZM14.5398 8.3612C14.3618 5.71468 16.5099 3.531 18.9784 3.31738C19.3225 6.37928 16.2013 8.6579 14.5398 8.3612Z" fill="white"/>
</g>
<defs>
<clipPath id="clip0_5513_1821">
<rect width="28" height="28" fill="white" transform="translate(0.5)"/>
</clipPath>
</defs>
</svg>
