<svg width="25" height="24" viewBox="0 0 25 24" fill="currentColor" xmlns="http://www.w3.org/2000/svg">
<path fill-rule="evenodd" clip-rule="evenodd" d="M22.4746 12C22.4746 17.5228 17.9975 22 12.4746 22C6.95176 22 2.47461 17.5228 2.47461 12C2.47461 6.47715 6.95176 2 12.4746 2C17.9975 2 22.4746 6.47715 22.4746 12ZM16.5049 8.96967C16.7978 9.26256 16.7978 9.73744 16.5049 10.0303L11.5049 15.0303C11.212 15.3232 10.7372 15.3232 10.4443 15.0303L8.44428 13.0303C8.15139 12.7374 8.15139 12.2626 8.44428 11.9697C8.73717 11.6768 9.21205 11.6768 9.50494 11.9697L10.9746 13.4393L13.2094 11.2045L15.4443 8.96967C15.7372 8.67678 16.212 8.67678 16.5049 8.96967Z" fill="currentColor"/>
</svg>
