<svg width="20" height="21" viewBox="0 0 20 21" fill="currentColor" xmlns="http://www.w3.org/2000/svg">
<g id="Bold / Video, Audio, Sound / Clapperboard Play">
<g id="Vector">
<path d="M10.0001 2.16699C11.5378 2.16699 12.7745 2.16699 13.7835 2.24018L10.9156 6.54201H7.00124L9.91792 2.16699H10.0001Z" fill="white"/>
<path d="M2.88714 3.38738C3.93078 2.34374 5.51836 2.19259 8.41313 2.1707L5.49893 6.54201H1.75356C1.87627 5.07193 2.17242 4.1021 2.88714 3.38738Z" fill="white"/>
<path fill-rule="evenodd" clip-rule="evenodd" d="M1.66675 10.5003C1.66675 9.46971 1.66675 8.57428 1.68879 7.79201H18.3114C18.3334 8.57428 18.3334 9.46971 18.3334 10.5003C18.3334 14.4287 18.3334 16.3929 17.113 17.6133C15.8926 18.8337 13.9285 18.8337 10.0001 18.8337C6.07171 18.8337 4.10752 18.8337 2.88714 17.6133C1.66675 16.3929 1.66675 14.4287 1.66675 10.5003ZM10.8451 10.988C11.9484 11.6999 12.5001 12.0559 12.5001 12.5837C12.5001 13.1115 11.9484 13.4674 10.8451 14.1793C9.72664 14.9009 9.16742 15.2618 8.75042 14.9968C8.33342 14.7319 8.33342 14.0158 8.33342 12.5837C8.33342 11.1515 8.33342 10.4354 8.75042 10.1705C9.16742 9.90556 9.72663 10.2664 10.8451 10.988Z" fill="white"/>
<path d="M18.2466 6.54201C18.1239 5.07193 17.8277 4.1021 17.113 3.38738C16.6153 2.88961 15.9937 2.59487 15.1657 2.42035L12.4179 6.54201H18.2466Z" fill="white"/>
</g>
</g>
</svg>
