<svg width="24" height="25" viewBox="0 0 24 25" fill="none" xmlns="http://www.w3.org/2000/svg">
<g id="Bold / Essentional, UI / Confetti">
<g id="Vector">
<path d="M10.1861 2.24877C10.5395 2.46481 10.6508 2.92645 10.4348 3.27985C10.278 3.5363 10.3173 3.86677 10.5298 4.07931L10.6277 4.17719C11.2164 4.76584 11.4334 5.63062 11.1926 6.42749C11.0727 6.82399 10.6541 7.04825 10.2576 6.9284C9.86114 6.80855 9.63688 6.38997 9.75673 5.99347C9.83761 5.72589 9.76472 5.43551 9.56706 5.23785L9.46918 5.13997C8.76666 4.43745 8.63678 3.34514 9.15499 2.49747C9.37104 2.14407 9.83267 2.03272 10.1861 2.24877Z" fill="#B862EB"/>
<path d="M17.6891 4.83123C18.0952 4.91247 18.3586 5.30759 18.2774 5.71376L18.1334 6.43369C17.9353 7.42451 17.2214 8.23317 16.2628 8.5527C15.8149 8.70201 15.4813 9.07988 15.3887 9.54286L15.2447 10.2628C15.1635 10.669 14.7684 10.9324 14.3622 10.8511C13.956 10.7699 13.6926 10.3748 13.7738 9.96863L13.9178 9.24869C14.116 8.25787 14.8299 7.44921 15.7885 7.12968C16.2364 6.98037 16.57 6.6025 16.6626 6.13952L16.8065 5.41958C16.8878 5.01341 17.2829 4.75 17.6891 4.83123Z" fill="#B862EB"/>
<path d="M21.4085 13.6691C21.0468 13.511 20.6262 13.5774 20.3308 13.8393C19.5215 14.5569 18.3439 14.6762 17.4072 14.1354L17.1943 14.0125C16.8356 13.8054 16.7127 13.3467 16.9198 12.988C17.1269 12.6292 17.5856 12.5063 17.9443 12.7134L18.1572 12.8363C18.5347 13.0543 19.0094 13.0062 19.3356 12.717C20.0684 12.0672 21.112 11.9024 22.0094 12.2947L22.3009 12.4222C22.6804 12.5881 22.8536 13.0303 22.6876 13.4098C22.5217 13.7894 22.0795 13.9625 21.7 13.7966L21.4085 13.6691Z" fill="#B862EB"/>
<path d="M6.92761 4.05043C7.13708 3.84096 7.47669 3.84096 7.68616 4.05043C7.89563 4.2599 7.89563 4.59952 7.68616 4.80898C7.47669 5.01845 7.13708 5.01845 6.92761 4.80898C6.71814 4.59952 6.71814 4.2599 6.92761 4.05043Z" fill="#B862EB"/>
<path d="M12.9157 7.26674C12.7062 7.05727 12.3666 7.05727 12.1571 7.26674C11.9476 7.47621 11.9476 7.81582 12.1571 8.02529C12.3666 8.23476 12.7062 8.23476 12.9157 8.02529C13.1251 7.81582 13.1251 7.47621 12.9157 7.26674Z" fill="#B862EB"/>
<path d="M17.1571 10.2667C17.3666 10.0573 17.7062 10.0573 17.9157 10.2667C18.1251 10.4762 18.1251 10.8158 17.9157 11.0253C17.7062 11.2348 17.3666 11.2348 17.1571 11.0253C16.9476 10.8158 16.9476 10.4762 17.1571 10.2667Z" fill="#B862EB"/>
<path d="M19.8165 15.423C19.6071 15.2135 19.2674 15.2135 19.058 15.423C18.8485 15.6325 18.8485 15.9721 19.058 16.1815C19.2674 16.391 19.6071 16.391 19.8165 16.1815C20.026 15.9721 20.026 15.6325 19.8165 15.423Z" fill="#B862EB"/>
<path d="M7.47151 20.3511C5.20995 21.0967 4.01839 21.4087 3.35924 20.7495C2.62936 20.0197 3.09026 18.6369 4.01207 15.8715L5.70156 10.803C6.33358 8.90701 6.70486 7.79315 7.32442 7.34131L7.31921 7.36712C7.31199 7.40303 7.30156 7.4555 7.28842 7.52301C7.26215 7.658 7.22504 7.85321 7.18122 8.09637C7.09363 8.58239 6.97894 9.26159 6.87035 10.0355C6.65521 11.5687 6.45595 13.5277 6.5586 15.0931C6.62072 16.0403 6.81779 17.2154 6.99367 18.1336C7.08243 18.597 7.16741 19.0031 7.23023 19.2936C7.26166 19.4389 7.2876 19.5555 7.30576 19.6361L7.3269 19.7292L7.47151 20.3511Z" fill="#B862EB"/>
<path d="M13.0389 18.4962L13.3057 18.4072C15.6038 17.6412 16.7528 17.2582 16.9667 16.3519C17.1807 15.4457 16.3242 14.5892 14.6114 12.8764L12.9221 11.1871L12.9174 11.2019C12.8978 11.2637 12.8694 11.3548 12.8352 11.4692C12.7666 11.6983 12.6751 12.0192 12.5837 12.3851C12.3967 13.1339 12.227 14.007 12.227 14.6649C12.227 15.3229 12.3967 16.196 12.5837 16.9448C12.6751 17.3106 12.7666 17.6316 12.8352 17.8607C12.8694 17.9751 12.8978 18.0662 12.9174 18.128C12.9272 18.1589 12.9348 18.1824 12.9398 18.1979L12.9454 18.2149L12.9467 18.2187L13.0389 18.4962Z" fill="#B862EB"/>
<path d="M8.79967 7.614L8.85034 7.36872C9.46308 7.72808 10.1888 8.45377 11.2324 9.49739L11.7352 10.0002L11.5225 10.6403L11.5134 10.6681C11.5073 10.6868 11.4986 10.7137 11.4877 10.7482C11.4658 10.817 11.435 10.916 11.3982 11.039C11.3246 11.2847 11.2266 11.6285 11.1284 12.0216C10.9363 12.7908 10.727 13.8131 10.727 14.6649C10.727 15.5168 10.9363 16.5391 11.1284 17.3083C11.2266 17.7014 11.3246 18.0451 11.3982 18.2909C11.435 18.4139 11.4658 18.5129 11.4877 18.5817C11.4986 18.6162 11.5073 18.6431 11.5134 18.6618L11.6159 18.9705L8.90092 19.8755L8.7941 19.4164L8.78901 19.3942L8.7691 19.3065C8.75178 19.2296 8.72677 19.1172 8.69633 18.9765C8.63541 18.6948 8.55293 18.3006 8.46689 17.8514C8.29314 16.9443 8.11112 15.8449 8.05539 14.995C7.96334 13.5911 8.14317 11.7593 8.35579 10.2439C8.46109 9.49352 8.57244 8.83402 8.65744 8.36241C8.6999 8.12676 8.73572 7.93842 8.7608 7.80957C8.77333 7.74515 8.78318 7.69562 8.78983 7.66252L8.79734 7.62538L8.79917 7.61641L8.79967 7.614Z" fill="#B862EB"/>
<path d="M14.9535 2.32006C15.1052 2.29995 15.3817 2.29028 15.6015 2.51005C15.8212 2.72981 15.8116 3.0063 15.7915 3.15798C15.7724 3.30132 15.7236 3.47306 15.677 3.63666L15.6412 3.76267L15.7059 3.86512C15.7934 4.00369 15.8874 4.15256 15.945 4.28498C16.0099 4.43434 16.0837 4.68646 15.9445 4.95135C15.808 5.21118 15.5635 5.29669 15.4079 5.33206C15.2664 5.36425 15.0893 5.378 14.921 5.39108L14.7935 5.40102L14.7829 5.40186L14.691 5.51343C14.5814 5.64673 14.4676 5.78506 14.3603 5.88317C14.2467 5.9871 14.0332 6.14733 13.736 6.10663C13.4286 6.06454 13.2692 5.84194 13.192 5.70284C13.1222 5.57689 13.061 5.41109 13.004 5.25659L12.9638 5.14772L12.8549 5.1075C12.7004 5.0505 12.5346 4.98933 12.4087 4.91948C12.2696 4.84234 12.047 4.68295 12.0049 4.37556C11.9642 4.07832 12.1244 3.86484 12.2284 3.75122C12.3265 3.64397 12.4648 3.53016 12.5981 3.42049L12.7097 3.32864L12.7105 3.31801L12.7204 3.1905C12.7335 3.02216 12.7473 2.84515 12.7795 2.7036C12.8148 2.54803 12.9003 2.30356 13.1602 2.167C13.4251 2.02778 13.6772 2.10164 13.8265 2.16656C13.959 2.22412 14.1078 2.31815 14.2464 2.40568L14.3489 2.47031L14.4748 2.4345C14.6385 2.38795 14.8102 2.33908 14.9535 2.32006Z" fill="#B862EB"/>
<path d="M22.1397 10.6019C22.6068 10.1348 22.7795 9.50594 22.5236 8.95203C22.3295 8.53186 21.9368 8.25858 21.4545 8.15565C21.3516 7.67335 21.0783 7.28058 20.6581 7.0865C20.1042 6.83065 19.4753 7.00331 19.0082 7.47045C18.7373 7.74132 18.6146 8.10434 18.5571 8.4276C18.4983 8.7583 18.4972 9.10787 18.5168 9.41411C18.5366 9.72336 18.5788 10.0069 18.6157 10.2119C18.6342 10.315 18.6516 10.3995 18.6645 10.4591C18.671 10.4889 18.6764 10.5126 18.6803 10.5293C18.7249 10.7093 18.8723 10.8784 19.0523 10.923L19.0535 10.9233L19.0809 10.9298C19.0975 10.9337 19.1212 10.9391 19.151 10.9456C19.2106 10.9585 19.2951 10.9759 19.3982 10.9944C19.6032 11.0313 19.8868 11.0735 20.196 11.0933C20.5023 11.1129 20.8518 11.1118 21.1825 11.053C21.5058 10.9955 21.8688 10.8728 22.1397 10.6019Z" fill="#B862EB"/>
</g>
</g>
</svg>
