<svg width="65" height="65" viewBox="0 0 65 65" fill="none" xmlns="http://www.w3.org/2000/svg">
<g id="Bold / Notifications / Bell Close">
<path id="Exclude" fill-rule="evenodd" clip-rule="evenodd" d="M50.4977 25.9876V24.11C50.4977 13.8007 42.4398 5.44336 32.5 5.44336C22.5602 5.44336 14.5023 13.8007 14.5023 24.11V25.9876C14.5023 28.2409 13.8592 30.4438 12.6541 32.3187L9.70096 36.9131C7.00353 41.1096 9.06279 46.8138 13.7543 48.1408C26.0273 51.6124 38.9727 51.6124 51.2457 48.1408C55.9372 46.8138 57.9965 41.1096 55.299 36.9131L52.3459 32.3187C51.1408 30.4438 50.4977 28.2409 50.4977 25.9876ZM32.5 58.7767C28.5378 58.7767 25.0143 56.9394 22.7714 54.0883C29.2295 54.9633 35.7705 54.9633 42.2286 54.0883C39.9857 56.9394 36.4622 58.7767 32.5 58.7767ZM28.2246 22.0824C27.3725 21.2303 25.9911 21.2303 25.139 22.0824C24.287 22.9345 24.287 24.3159 25.139 25.168L29.4144 29.4434L25.139 33.7188C24.287 34.5708 24.287 35.9523 25.139 36.8043C25.9911 37.6564 27.3725 37.6564 28.2246 36.8043L32.5 32.5289L36.7754 36.8043C37.6275 37.6564 39.0089 37.6564 39.861 36.8043C40.713 35.9523 40.713 34.5708 39.861 33.7188L35.5856 29.4434L39.861 25.168C40.713 24.3159 40.713 22.9345 39.861 22.0824C39.0089 21.2303 37.6275 21.2303 36.7754 22.0824L32.5 26.3578L28.2246 22.0824Z" fill="#B1B7BE"/>
</g>
</svg>
