<svg width="32" height="32" viewBox="0 0 32 32" fill="currentColor" xmlns="http://www.w3.org/2000/svg">
<g clip-path="url(#clip0_5501_13707)">
<path d="M11.1357 26.9895C12.2572 28.415 14.0189 29.3337 16 29.3337C17.9811 29.3337 19.7428 28.415 20.8643 26.9895C17.6352 27.427 14.3648 27.427 11.1357 26.9895Z" fill="currentColor"/>
<path d="M24.9988 12.0003V12.9391C24.9988 14.0658 25.3204 15.1672 25.9229 16.1047L27.3995 18.4019C28.7482 20.5001 27.7186 23.3522 25.3729 24.0157C19.2363 25.7515 12.7637 25.7515 6.62715 24.0157C4.2814 23.3522 3.25176 20.5001 4.60048 18.4019L6.07706 16.1047C6.67962 15.1672 7.00116 14.0658 7.00116 12.9391V12.0003C7.00116 6.84567 11.0301 2.66699 16 2.66699C20.9699 2.66699 24.9988 6.84567 24.9988 12.0003Z" fill="currentColor"/>
</g>
<defs>
<clipPath id="clip0_5501_13707">
<rect width="32" height="32" fill="currentColor"/>
</clipPath>
</defs>
</svg>
