<svg width="180" height="56" viewBox="0 0 180 56" fill="currentColor" xmlns="http://www.w3.org/2000/svg">
  <path fill-rule="evenodd" clip-rule="evenodd"
    d="M10.0634 40.0685C10.225 38.3711 10.3665 36.5929 10.4877 34.7339C10.6089 32.7537 10.811 30.8543 11.0939 29.0357C11.4172 27.2171 11.8213 25.641 12.3063 24.3073C12.8317 22.9333 13.4783 21.8421 14.2461 21.0339C15.014 20.2256 15.9435 19.8215 17.0346 19.8215C18.247 19.8215 19.0553 20.2256 19.4594 21.0339C19.904 21.8421 20.1263 22.7716 20.1263 23.8224C20.1263 24.5094 20.0454 25.6208 19.8838 27.1565C19.7625 28.6518 19.6211 30.2481 19.4594 31.9454C19.3382 33.6024 19.1968 35.2189 19.0351 36.795C18.9139 38.3307 18.8532 39.5027 18.8532 40.311C18.8532 41.1596 18.9341 41.9275 19.0957 42.6145C19.2978 43.2611 19.6211 43.8067 20.0656 44.2512C20.5102 44.6958 21.1366 45.0393 21.9448 45.2818C22.7531 45.5243 23.8039 45.6455 25.0971 45.6455H27.0369C27.4006 45.6455 27.6835 45.6253 27.8856 45.5849C28.0877 45.5445 28.2291 45.4636 28.3099 45.3424C28.4312 45.2212 28.512 45.0393 28.5524 44.7968C28.5928 44.5543 28.6332 44.2108 28.6736 43.7663C28.8353 41.3415 28.9767 39.3208 29.098 37.7043C29.2192 36.0878 29.3203 34.6531 29.4011 33.4003C29.5223 31.4605 29.7446 29.6621 30.0679 28.0051C30.3912 26.3482 30.8155 24.9135 31.3409 23.7011C31.8663 22.4887 32.5129 21.539 33.2807 20.852C34.0486 20.165 34.9579 19.8215 36.0086 19.8215C37.221 19.8215 38.0293 20.2256 38.4334 21.0339C38.878 21.8421 39.1002 22.7716 39.1002 23.8224C39.1002 24.0649 39.0598 24.57 38.979 25.3379C38.9386 26.1057 38.8578 27.015 38.7365 28.0658C38.6557 29.0761 38.5547 30.1875 38.4334 31.3998C38.3526 32.6122 38.2516 33.7842 38.1303 34.9158C38.0495 36.0474 37.9687 37.0981 37.8878 38.068C37.8474 39.0379 37.8272 39.7856 37.8272 40.311C37.8272 41.1596 37.9081 41.9275 38.0697 42.6145C38.2718 43.2611 38.5951 43.8067 39.0396 44.2512C39.4842 44.6958 40.1106 45.0393 40.9188 45.2818C41.7271 45.5243 42.7778 45.6455 44.0711 45.6455H46.0109C46.3746 45.6455 46.6575 45.6253 46.8596 45.5849C47.0616 45.5445 47.2031 45.4636 47.2839 45.3424C47.4052 45.2212 47.486 45.0393 47.5264 44.7968C47.5668 44.5543 47.6072 44.2108 47.6476 43.7663C47.7689 41.7052 47.9305 39.5633 48.1326 37.3406C48.3347 35.0774 48.5165 32.8951 48.6782 30.7937C48.8398 28.6518 48.9813 26.6715 49.1025 24.8529C49.2237 23.0343 49.2844 21.4986 49.2844 20.2458C49.2844 18.5889 49.0217 17.2148 48.4963 16.1237C48.0113 14.9921 47.3445 14.103 46.4959 13.4564C45.6472 12.8098 44.6368 12.3652 43.4649 12.1228C42.3333 11.8399 41.1411 11.6984 39.8883 11.6984C37.6252 11.6984 35.7459 12.1632 34.2507 13.0927C32.7554 13.9818 31.3813 15.5983 30.1285 17.9423C29.886 16.7299 29.4819 15.7397 28.9161 14.9719C28.3503 14.1636 27.6633 13.517 26.855 13.0321C26.0468 12.5471 25.1375 12.2036 24.1272 12.0015C23.1168 11.7995 22.0661 11.6984 20.9749 11.6984C18.9543 11.6984 17.1963 12.0823 15.701 12.8502C14.2057 13.618 12.8721 15.0931 11.7001 17.2754C11.6597 16.6288 11.5385 16.0024 11.3364 15.3962C11.1343 14.79 10.7908 14.2647 10.3059 13.8201C9.82089 13.3756 9.19449 13.0119 8.42664 12.729C7.65879 12.4461 6.66866 12.3046 5.45627 12.3046H3.0921C2.56673 12.3046 2.24342 12.3652 2.12218 12.4865C1.96053 12.6481 1.85949 13.1735 1.81908 14.0626C1.49578 18.508 1.21288 22.2463 0.970405 25.2773C0.768339 28.2678 0.586479 30.7532 0.424827 32.7335C0.263174 34.6733 0.141935 36.209 0.0611082 37.3406C0.0206949 38.4317 0.000488281 39.2804 0.000488281 39.8866C0.000488281 40.8161 0.0813147 41.6446 0.242967 42.372C0.445033 43.0591 0.768339 43.645 1.21288 44.13C1.69784 44.615 2.32425 44.9989 3.0921 45.2818C3.90036 45.5243 4.9309 45.6455 6.18371 45.6455H8.36602C8.89139 45.6455 9.2349 45.5647 9.39655 45.403C9.55821 45.2414 9.65924 44.9181 9.69965 44.4331C9.78048 43.1803 9.90172 41.7254 10.0634 40.0685ZM57.1858 29.6419C53.9123 31.7029 52.2756 34.5521 52.2756 38.1893C52.2756 39.6441 52.4978 40.8969 52.9424 41.9477C53.4273 42.958 54.0537 43.7865 54.8216 44.4331C55.6299 45.0797 56.5594 45.5445 57.6101 45.8274C58.7013 46.1102 59.853 46.2517 61.0654 46.2517C63.5711 46.2517 65.5917 45.7263 67.1274 44.6756C68.7035 43.6248 69.9765 42.3922 70.9465 40.9778C71.2698 42.6347 71.9164 43.9279 72.8863 44.8574C73.8562 45.7869 75.3111 46.2517 77.2509 46.2517C78.625 46.2517 79.7767 46.0092 80.7062 45.5243C81.6762 45.0393 82.4238 44.4129 82.9492 43.645C83.515 42.8772 83.9191 42.0285 84.1616 41.099C84.404 40.1695 84.5253 39.2602 84.5253 38.3711C84.5253 38.0478 84.3434 37.8458 83.9797 37.7649C83.616 37.6841 83.1917 37.5629 82.7067 37.4012C82.2621 37.2396 81.858 36.9567 81.4943 36.5525C81.1306 36.108 80.9487 35.3805 80.9487 34.3702C80.9487 33.9257 80.9891 33.1376 81.07 32.006C81.1912 30.8745 81.3124 29.6823 81.4337 28.4295C81.5953 27.1363 81.7166 25.9239 81.7974 24.7923C81.9186 23.6203 81.9793 22.812 81.9793 22.3675C81.9793 18.9728 80.9689 16.3459 78.9483 14.4869C76.9276 12.6279 73.6743 11.6984 69.1885 11.6984C66.8849 11.6984 64.8643 11.9409 63.1265 12.4259C61.3887 12.9108 59.9339 13.5776 58.7619 14.4263C57.6303 15.2346 56.7614 16.2045 56.1552 17.3361C55.5894 18.4676 55.3066 19.6598 55.3066 20.9126C55.3066 24.0244 57.3676 25.5803 61.4898 25.5803C62.096 25.5803 62.5405 25.5399 62.8234 25.4591C63.1063 25.3379 63.2882 25.0954 63.369 24.7317C63.5306 24.0042 63.7125 23.3374 63.9146 22.7312C64.1166 22.125 64.3793 21.6199 64.7026 21.2157C65.0259 20.7712 65.4503 20.4277 65.9756 20.1852C66.501 19.9427 67.188 19.8215 68.0367 19.8215C69.5724 19.8215 70.5827 20.2054 71.0677 20.9732C71.5527 21.7411 71.7951 22.7716 71.7951 24.0649C71.7951 24.5094 71.7749 24.8933 71.7345 25.2166C71.7345 25.4995 71.7143 25.8632 71.6739 26.3078C65.2886 26.4694 60.4592 27.5808 57.1858 29.6419ZM68.0367 31.5211C69.047 31.3594 70.0776 31.2786 71.1283 31.2786C71.0475 32.4506 70.8252 33.4609 70.4615 34.3096C70.0978 35.1583 69.6532 35.8857 69.1279 36.4919C68.6429 37.0577 68.0771 37.482 67.4305 37.7649C66.7839 38.0478 66.1373 38.1893 65.4907 38.1893C64.8037 38.1893 64.157 38.0074 63.5508 37.6437C62.9851 37.28 62.7022 36.6334 62.7022 35.7039C62.7022 34.8956 62.9447 34.2086 63.4296 33.6428C63.9146 33.077 64.541 32.6324 65.3088 32.3091C66.1171 31.9454 67.0264 31.6827 68.0367 31.5211ZM99.891 28.6113C100.012 27.1969 100.113 25.8834 100.194 24.6711H103.892C105.71 24.6711 106.903 24.3073 107.468 23.5799C108.075 22.812 108.418 21.8219 108.499 20.6095L108.741 17.3361C108.741 16.7703 108.418 16.4874 107.772 16.4874H100.8C100.922 15.4366 101.063 14.4061 101.225 13.3958C101.427 12.3854 101.71 11.4964 102.073 10.7285C102.437 9.92024 102.902 9.27363 103.468 8.78867C104.033 8.30372 104.72 8.06124 105.529 8.06124C106.62 8.06124 107.287 8.44516 107.529 9.21301C107.772 9.98086 107.893 11.0316 107.893 12.3652C107.893 12.729 107.994 12.9714 108.196 13.0927C108.438 13.1735 108.863 13.2139 109.469 13.2139C111.692 13.2139 113.45 12.7694 114.743 11.8803C116.076 10.9912 116.743 9.4959 116.743 7.39442C116.743 6.38409 116.541 5.43438 116.137 4.54529C115.733 3.6562 115.086 2.88835 114.197 2.24174C113.308 1.59513 112.136 1.08996 110.681 0.726242C109.267 0.362523 107.549 0.180664 105.529 0.180664C103.468 0.180664 101.588 0.423144 99.891 0.908103C98.234 1.35265 96.7994 2.1205 95.587 3.21165C94.3746 4.2624 93.3845 5.67686 92.6166 7.45504C91.8892 9.23322 91.4042 11.4357 91.1617 14.0626L90.9193 16.4874C90.0706 16.5278 89.3835 16.6895 88.8582 16.9723C88.3328 17.2148 87.9287 17.5381 87.6458 17.9423C87.4033 18.306 87.2214 18.7505 87.1002 19.2759C87.0194 19.7609 86.9588 20.2458 86.9183 20.7308C86.8779 21.337 86.8375 21.9634 86.7971 22.61C86.7567 23.2162 86.7365 23.6809 86.7365 24.0042C86.7365 24.4488 86.9588 24.6711 87.4033 24.6711H90.2524L89.8887 29.6419C89.7675 31.2988 89.6462 32.8143 89.525 34.1884C89.4442 35.522 89.3633 36.6738 89.2825 37.6437C89.2421 38.6136 89.2219 39.2198 89.2219 39.4623C89.2219 41.5234 89.6462 43.0793 90.4949 44.13C91.384 45.1403 92.9197 45.6455 95.102 45.6455H97.2843C97.8097 45.6455 98.1532 45.5647 98.3149 45.403C98.4765 45.2414 98.5775 44.9181 98.618 44.4331C98.618 44.3927 98.6382 44.029 98.6786 43.3419C98.7594 42.6549 98.8402 41.786 98.9211 40.7353C99.0019 39.6846 99.0827 38.4722 99.1635 37.0981C99.2848 35.7241 99.406 34.3298 99.5273 32.9153C99.6485 31.4605 99.7697 30.0258 99.891 28.6113ZM119.28 45.0999C121.139 45.8678 123.463 46.2517 126.252 46.2517C126.431 46.2517 126.608 46.2501 126.784 46.2469C126.649 47.1168 126.788 48.0332 127.242 48.8541C128.481 51.097 130.825 52.6266 133.056 53.6036C135.432 54.6447 138.322 55.3432 141.417 55.5348C147.605 55.918 155.091 54.2886 161.192 48.6121C161.891 47.9614 162.317 47.1223 162.462 46.2458C164.761 46.1995 166.768 45.8782 168.483 45.2818C170.382 44.6352 171.999 43.7663 173.332 42.6751C174.666 41.584 175.757 40.3312 176.606 38.9167C177.495 37.5022 178.182 36.0474 178.667 34.5521C179.192 33.0568 179.536 31.5615 179.697 30.0662C179.899 28.5305 180 27.1363 180 25.8835C180 21.3976 178.889 17.9221 176.666 15.4568C174.484 12.9512 170.847 11.6984 165.755 11.6984C162.279 11.6984 159.37 12.2642 157.026 13.3958C154.722 14.4869 152.863 15.9418 151.449 17.7604C150.034 19.579 149.024 21.6603 148.418 24.0042C147.852 26.3078 147.569 28.672 147.569 31.0967C147.569 33.1982 147.791 35.1785 148.236 37.0375C148.68 38.8561 149.448 40.4524 150.539 41.8264C151.347 42.8432 152.353 43.705 153.559 44.412C149.904 46.8466 145.746 47.6257 142.023 47.3953C139.77 47.2557 137.796 46.7496 136.337 46.1105C134.807 45.4405 134.315 44.8404 134.276 44.7935C134.274 44.7912 134.274 44.7902 134.274 44.7907C134.266 44.776 134.258 44.7615 134.249 44.747C135.56 44.1802 136.713 43.4896 137.709 42.6751C139.042 41.584 140.134 40.3312 140.982 38.9167C141.871 37.5022 142.558 36.0474 143.043 34.5521C143.569 33.0568 143.912 31.5615 144.074 30.0662C144.276 28.5305 144.377 27.1363 144.377 25.8835C144.377 21.3976 143.266 17.9221 141.043 15.4568C138.86 12.9512 135.223 11.6984 130.131 11.6984C126.656 11.6984 123.746 12.2642 121.402 13.3958C119.098 14.4869 117.239 15.9418 115.825 17.7604C114.411 19.579 113.4 21.6603 112.794 24.0042C112.228 26.3078 111.945 28.672 111.945 31.0967C111.945 33.1982 112.168 35.1785 112.612 37.0375C113.057 38.8561 113.825 40.4524 114.916 41.8264C116.007 43.2005 117.462 44.2917 119.28 45.0999ZM125.403 20.9732C126.332 20.165 127.565 19.7609 129.101 19.7609C130.919 19.7609 132.192 20.3468 132.92 21.5188C133.688 22.6504 134.072 24.2265 134.072 26.2472C134.072 27.1767 133.971 28.3284 133.768 29.7025C133.607 31.0765 133.263 32.39 132.738 33.6428C132.253 34.8956 131.546 35.9665 130.616 36.8556C129.727 37.7447 128.575 38.1893 127.161 38.1893C125.585 38.1893 124.372 37.5629 123.524 36.31C122.675 35.0572 122.251 33.0972 122.251 30.4299C122.251 29.5813 122.311 28.5507 122.433 27.3383C122.594 26.0855 122.897 24.9135 123.342 23.8224C123.827 22.6908 124.514 21.7411 125.403 20.9732ZM161.026 20.9732C161.956 20.165 163.189 19.7609 164.724 19.7609C166.543 19.7609 167.816 20.3468 168.543 21.5188C169.311 22.6504 169.695 24.2265 169.695 26.2472C169.695 27.1767 169.594 28.3284 169.392 29.7025C169.23 31.0765 168.887 32.39 168.361 33.6428C167.877 34.8956 167.169 35.9665 166.24 36.8556C165.351 37.7447 164.199 38.1893 162.784 38.1893C161.208 38.1893 159.996 37.5629 159.147 36.31C158.299 35.0572 157.874 33.0972 157.874 30.4299C157.874 29.5813 157.935 28.5507 158.056 27.3383C158.218 26.0855 158.521 24.9135 158.965 23.8224C159.45 22.6908 160.137 21.7411 161.026 20.9732Z"
    fill="#181C23" />
</svg>