<svg width="119" height="90" viewBox="0 0 119 90" fill="currentColor" xmlns="http://www.w3.org/2000/svg">
  <path fill-rule="evenodd" clip-rule="evenodd"
    d="M16.0999 37.4865C13.9951 25.9001 21.6814 14.8011 33.2679 12.6962L34.9875 12.3838C41.7889 11.1482 48.4223 13.2865 53.1671 17.6071C56.0891 11.8938 61.5465 7.55912 68.3478 6.32354L70.0674 6.01114C81.6539 3.90624 92.7529 11.5925 94.8577 23.1789C94.9417 23.6411 95.0101 24.1025 95.0633 24.5626L95.1077 24.5546L101.752 61.1299C102.051 62.7731 100.961 64.3472 99.3173 64.6458L67.7073 70.3883C67.6972 70.3902 67.687 70.3921 67.6769 70.394L57.8072 72.187C57.7914 72.1899 57.7756 72.1926 57.7598 72.1952L26.5101 77.8723C24.8669 78.1708 23.2928 77.0807 22.9943 75.4375L16.3498 38.8622L16.3942 38.8541C16.2822 38.4047 16.1839 37.9487 16.0999 37.4865Z"
    fill="white" />
  <path
    d="M25.5944 63.2029C25.9921 62.6839 26.1523 62.0036 25.8627 61.4175C25.3643 60.409 24.3857 59.2457 22.7579 58.8809C22.0305 58.7179 21.3347 59.1477 20.9262 59.7712M60.9949 46.0293C62.3751 53.6269 68.4983 58.8769 74.6714 57.7554C80.8445 56.6339 84.7299 49.5657 83.3497 41.9681M33.1366 51.0898C31.7563 43.4922 35.6417 36.424 41.8149 35.3025M45.893 48.9494C46.5658 52.6532 44.2627 56.1733 40.7488 56.8117C37.2348 57.45 33.8408 54.965 33.1679 51.2611C32.4951 47.5573 34.7982 44.0372 38.3121 43.3989M25.7258 60.0927L27.4454 59.7803C34.2468 58.5447 40.8802 60.683 45.625 65.0035M60.8057 53.72L62.5253 53.4076M33.2679 12.6962C21.6814 14.8011 13.9951 25.9001 16.0999 37.4865C16.1839 37.9487 16.2822 38.4047 16.3942 38.8541L16.3498 38.8622L22.9943 75.4375C23.2928 77.0807 24.8669 78.1708 26.5101 77.8723L57.7598 72.1952C57.7756 72.1926 57.7914 72.1899 57.8072 72.187L67.6769 70.394C67.687 70.3921 67.6972 70.3902 67.7073 70.3883L99.3173 64.6458C100.961 64.3472 102.051 62.7731 101.752 61.1299L95.1077 24.5546L95.0633 24.5626C95.0101 24.1025 94.9417 23.6411 94.8577 23.1789C92.7529 11.5925 81.6539 3.90624 70.0674 6.01114L68.3478 6.32354C61.5465 7.55912 56.0891 11.8938 53.1671 17.6071C48.4223 13.2865 41.7889 11.1482 34.9875 12.3838L33.2679 12.6962ZM61.0259 46.2008C61.6988 49.9046 65.0928 52.3897 68.6067 51.7513C72.1207 51.1129 74.4238 47.5929 73.7509 43.889C73.0781 40.1852 69.684 37.7001 66.1701 38.3385C62.6562 38.9768 60.353 42.4969 61.0259 46.2008Z"
    stroke="white" stroke-width="8.62561" />
  <path fill-rule="evenodd" clip-rule="evenodd"
    d="M16.0104 37.3616C13.9056 25.7752 21.5919 14.6762 33.1784 12.5713L34.898 12.2589C41.6994 11.0233 48.3328 13.1616 53.0776 17.4821C55.9996 11.7689 61.457 7.43412 68.2583 6.19853L69.9779 5.88614C81.5644 3.78124 92.6634 11.4676 94.7682 23.054C94.8522 23.5162 94.9206 23.9776 94.9738 24.4377L95.0181 24.4296L101.663 61.005C101.961 62.6482 100.871 64.2223 99.2278 64.5208L67.6178 70.2634C67.6077 70.2653 67.5975 70.2672 67.5874 70.2691L57.7177 72.0621C57.7019 72.0649 57.6861 72.0677 57.6703 72.0703L26.4206 77.7474C24.7774 78.0459 23.2033 76.9558 22.9048 75.3126L16.2603 38.7372L16.3047 38.7292C16.1927 38.2798 16.0944 37.8238 16.0104 37.3616Z"
    fill="#CFCFCF" />
  <path
    d="M60.906 45.9011C62.2862 53.4987 68.4094 58.7487 74.5825 57.6272C80.7557 56.5058 84.6411 49.4376 83.2608 41.8399C81.8806 34.2423 75.7574 28.9923 69.5843 30.1138C63.4112 31.2353 59.5258 38.3035 60.906 45.9011Z"
    fill="white" />
  <path
    d="M60.9347 46.0725C61.6075 49.7764 65.0016 52.2614 68.5155 51.6231C72.0294 50.9847 74.3326 47.4646 73.6597 43.7608C72.9869 40.0569 69.5928 37.5719 66.0789 38.2103C62.565 38.8486 60.2618 42.3687 60.9347 46.0725Z"
    fill="#1F1614" />
  <path
    d="M33.0584 50.9616C34.4386 58.5593 40.5618 63.8092 46.7349 62.6878C52.908 61.5663 56.7934 54.4981 55.4132 46.9005C54.033 39.3028 47.9098 34.0529 41.7367 35.1743C35.5635 36.2958 31.6781 43.364 33.0584 50.9616Z"
    fill="white" />
  <path
    d="M33.087 51.135C33.7599 54.8389 37.1539 57.3239 40.6679 56.6856C44.1818 56.0472 46.4849 52.5271 45.8121 48.8233C45.1392 45.1195 41.7451 42.6344 38.2312 43.2728C34.7173 43.9111 32.4142 47.4312 33.087 51.135Z"
    fill="#1F1614" />
  <path fill-rule="evenodd" clip-rule="evenodd"
    d="M16.4596 38.3459C14.3548 26.7595 22.0411 15.6605 33.6276 13.5556L35.3472 13.2433C42.1486 12.0077 48.782 14.1459 53.5268 18.4665C56.4488 12.7533 61.9062 8.41849 68.7075 7.18291L70.4271 6.87051C82.0136 4.76562 93.1126 12.4519 95.2175 24.0383C95.3014 24.5005 95.3698 24.962 95.423 25.4221L95.4674 25.414L102.112 61.9894C102.41 63.6326 101.32 65.2067 99.677 65.5052L68.0671 71.2477C68.0569 71.2497 68.0468 71.2516 68.0366 71.2534L58.1669 73.0464C58.1511 73.0493 58.1353 73.052 58.1195 73.0547L26.8699 78.7317C25.2266 79.0303 23.6525 77.9402 23.354 76.2969L16.7095 39.7216L16.7539 39.7136C16.6419 39.2641 16.5436 38.8081 16.4596 38.3459Z"
    fill="#CFCFCF" />
  <path
    d="M61.3572 46.8923C62.7374 54.4899 68.8606 59.7399 75.0337 58.6184C81.2068 57.497 85.0922 50.4288 83.712 42.8311C82.3318 35.2335 76.2086 29.9835 70.0355 31.105C63.8624 32.2264 59.977 39.2947 61.3572 46.8923Z"
    fill="white" />
  <path
    d="M61.2569 43.1459C61.9298 46.8497 65.3239 49.3348 68.8378 48.6964C72.3517 48.058 74.6549 44.538 73.982 40.8341C73.3091 37.1303 69.9151 34.6452 66.4011 35.2836C62.8872 35.922 60.5841 39.442 61.2569 43.1459Z"
    fill="#1F1614" />
  <path
    d="M33.5056 51.9519C34.8858 59.5495 41.009 64.7995 47.1822 63.678C53.3553 62.5566 57.2407 55.4883 55.8604 47.8907C54.4802 40.2931 48.357 35.0431 42.1839 36.1646C36.0108 37.286 32.1254 44.3543 33.5056 51.9519Z"
    fill="white" />
  <path
    d="M33.4816 48.0355C34.1544 51.7394 37.5485 54.2244 41.0624 53.5861C44.5763 52.9477 46.8795 49.4276 46.2066 45.7238C45.5337 42.0199 42.1397 39.5349 38.6258 40.1732C35.1118 40.8116 32.8087 44.3317 33.4816 48.0355Z"
    fill="#1F1614" />
  <path fill-rule="evenodd" clip-rule="evenodd"
    d="M55.3751 54.2765C56.6121 53.3308 58.2964 52.9731 60.2086 53.4579C60.9394 53.6432 61.3817 54.3859 61.1964 55.1167C61.0111 55.8475 60.2684 56.2897 59.5376 56.1044C58.3409 55.801 57.5349 56.0621 57.0333 56.4455C56.5008 56.8527 56.1862 57.4912 56.1541 58.1397C56.1226 58.7733 56.3592 59.3543 56.8638 59.7421C57.2088 60.0072 57.7715 60.2506 58.6359 60.2891C59.1839 60.1631 59.7843 60.1164 60.4348 60.1674C61.1215 60.2213 61.6605 60.7783 61.6917 61.4664C61.723 62.1545 61.2367 62.7581 60.5578 62.874C60.0276 62.9645 59.5202 63.0135 59.0372 63.0223C57.852 63.4218 57.2632 64.5863 57.3688 65.6436C57.4317 66.274 57.7382 66.7401 58.2566 66.9763C58.8166 67.2314 59.9161 67.3501 61.7802 66.5847C62.4776 66.2983 63.2751 66.6315 63.5615 67.3289C63.8479 68.0264 63.5147 68.8239 62.8173 69.1103C60.5719 70.0323 58.63 70.1467 57.1246 69.4608C55.5777 68.756 54.7947 67.3442 54.652 65.9149C54.528 64.6722 54.888 63.3178 55.6837 62.2339C55.515 62.134 55.3538 62.025 55.2002 61.9069C53.9033 60.9104 53.3567 59.4243 53.4271 58.0045C53.4968 56.5996 54.169 55.1986 55.3751 54.2765Z"
    fill="#A6A6A6" />
</svg>