<svg width="24" height="24" viewBox="0 0 24 24" fill="none" xmlns="http://www.w3.org/2000/svg">
<rect width="24" height="24" rx="6" fill="url(#paint0_linear_5581_23426)"/>
<path fill-rule="evenodd" clip-rule="evenodd" d="M4.403 7.89973C4.99307 5.50089 7.41605 4.03459 9.81489 4.62466L10.1709 4.71223C11.5791 5.05861 12.6659 6.03658 13.204 7.27051C14.2532 6.42705 15.6696 6.06485 17.0777 6.41122L17.4338 6.4988C19.8326 7.08886 21.2989 9.51185 20.7088 11.9107C20.6853 12.0064 20.6588 12.1006 20.6296 12.1932L20.6388 12.1955L18.7761 19.768C18.6924 20.1082 18.3488 20.3162 18.0085 20.2325L11.4641 18.6227C11.462 18.6222 11.4599 18.6217 11.4578 18.6212L9.41437 18.1185C9.4111 18.1177 9.40784 18.1169 9.40459 18.116L2.93472 16.5246C2.59451 16.4409 2.38656 16.0973 2.47024 15.7571L4.33294 8.18455L4.34213 8.18681C4.35919 8.09115 4.37946 7.99542 4.403 7.89973Z" fill="white"/>
<path d="M4.01672 13.6374C4.13734 13.5721 4.22633 13.4556 4.22111 13.3185C4.21213 13.0827 4.12446 12.7761 3.84406 12.5667C3.71876 12.4732 3.5487 12.4958 3.41704 12.5802M12.2667 13.3834C11.8798 14.9564 12.6022 16.4864 13.8802 16.8008C15.1583 17.1152 16.5081 16.0949 16.895 14.5218M6.49901 11.9646C6.88594 10.3916 8.23568 9.37123 9.51375 9.68561M9.1249 12.6481C8.93627 13.4149 8.19359 13.8915 7.46607 13.7126C6.73855 13.5336 6.3017 12.7669 6.49033 12C6.67895 11.2332 7.42164 10.7566 8.14915 10.9356M4.30844 13.0531L4.66446 13.1407C6.07261 13.4871 7.15943 14.4651 7.69757 15.699M11.5713 14.8397L11.9273 14.9273M9.81489 4.62466C7.41605 4.03459 4.99307 5.50089 4.403 7.89973C4.37946 7.99542 4.35919 8.09115 4.34213 8.18681L4.33294 8.18455L2.47024 15.7571C2.38656 16.0973 2.59451 16.4409 2.93472 16.5246L9.40459 18.116C9.40784 18.1169 9.4111 18.1177 9.41437 18.1185L11.4578 18.6212C11.4599 18.6217 11.462 18.6222 11.4641 18.6227L18.0085 20.2325C18.3488 20.3162 18.6924 20.1082 18.7761 19.768L20.6388 12.1955L20.6296 12.1932C20.6588 12.1006 20.6853 12.0064 20.7088 11.9107C21.2989 9.51185 19.8326 7.08886 17.4338 6.4988L17.0777 6.41122C15.6696 6.06485 14.2532 6.42705 13.204 7.27051C12.6659 6.03658 11.5791 5.05861 10.1709 4.71223L9.81489 4.62466ZM12.2579 13.4189C12.0693 14.1857 12.5062 14.9524 13.2337 15.1314C13.9612 15.3103 14.7039 14.8338 14.8925 14.0669C15.0811 13.3001 14.6443 12.5334 13.9168 12.3544C13.1892 12.1755 12.4466 12.652 12.2579 13.4189Z" stroke="white" stroke-width="1.80944"/>
<path fill-rule="evenodd" clip-rule="evenodd" d="M4.40015 7.86772C4.99022 5.46889 7.41321 4.00259 9.81204 4.59265L10.1681 4.68023C11.5762 5.0266 12.663 6.00458 13.2012 7.23851C14.2503 6.39505 15.6668 6.03285 17.0749 6.37922L17.4309 6.46679C19.8298 7.05686 21.2961 9.47984 20.706 11.8787C20.6825 11.9744 20.656 12.0686 20.6267 12.1612L20.6359 12.1635L18.7732 19.736C18.6896 20.0762 18.3459 20.2842 18.0057 20.2005L11.4612 18.5907C11.4591 18.5902 11.457 18.5897 11.4549 18.5892L9.41153 18.0865C9.40825 18.0857 9.40499 18.0849 9.40175 18.084L2.93188 16.4926C2.59167 16.4089 2.38371 16.0653 2.4674 15.7251L4.33009 8.15254L4.33928 8.1548C4.35635 8.05915 4.37662 7.96341 4.40015 7.86772Z" fill="#2CD68E"/>
<path d="M12.2644 13.3503C11.8774 14.9233 12.5999 16.4534 13.8779 16.7677C15.156 17.0821 16.5057 16.0618 16.8927 14.4888C17.2796 12.9158 16.5572 11.3858 15.2791 11.0714C14.001 10.757 12.6513 11.7773 12.2644 13.3503Z" fill="white"/>
<path d="M12.2553 13.3859C12.0667 14.1528 12.5036 14.9195 13.2311 15.0985C13.9586 15.2774 14.7013 14.8008 14.8899 14.034C15.0785 13.2672 14.6417 12.5004 13.9142 12.3215C13.1866 12.1425 12.444 12.6191 12.2553 13.3859Z" fill="#1F1614"/>
<path d="M6.4963 11.9324C6.10937 13.5054 6.83178 15.0354 8.10985 15.3498C9.38792 15.6642 10.7377 14.6438 11.1246 13.0708C11.5115 11.4978 10.7891 9.9678 9.51105 9.65342C8.23298 9.33904 6.88323 10.3594 6.4963 11.9324Z" fill="white"/>
<path d="M6.48776 11.968C6.29913 12.7348 6.73598 13.5015 7.4635 13.6805C8.19102 13.8594 8.9337 13.3829 9.12233 12.616C9.31095 11.8492 8.8741 11.0825 8.14658 10.9035C7.41907 10.7246 6.67639 11.2011 6.48776 11.968Z" fill="#1F1614"/>
<path fill-rule="evenodd" clip-rule="evenodd" d="M4.40015 8.09526C4.99022 5.69642 7.41321 4.23013 9.81204 4.82019L10.1681 4.90777C11.5762 5.25414 12.663 6.23212 13.2012 7.46604C14.2503 6.62259 15.6668 6.26038 17.0749 6.60676L17.4309 6.69433C19.8298 7.2844 21.2961 9.70738 20.706 12.1062C20.6825 12.2019 20.656 12.2961 20.6267 12.3888L20.6359 12.391L18.7732 19.9635C18.6896 20.3038 18.3459 20.5117 18.0057 20.428L11.4612 18.8182C11.4591 18.8177 11.457 18.8172 11.4549 18.8167L9.41153 18.3141C9.40825 18.3133 9.40499 18.3124 9.40175 18.3116L2.93188 16.7201C2.59167 16.6364 2.38371 16.2928 2.4674 15.9526L4.33009 8.38008L4.33928 8.38234C4.35635 8.28669 4.37662 8.19095 4.40015 8.09526Z" fill="#2CD68E"/>
<path d="M12.2639 13.5798C11.877 15.1528 12.5994 16.6829 13.8774 16.9972C15.1555 17.3116 16.5052 16.2913 16.8922 14.7183C17.2791 13.1453 16.5567 11.6153 15.2786 11.3009C14.0006 10.9865 12.6508 12.0068 12.2639 13.5798Z" fill="white"/>
<path d="M12.2553 13.6154C12.0667 14.3823 12.5036 15.149 13.2311 15.3279C13.9586 15.5069 14.7013 15.0303 14.8899 14.2635C15.0785 13.4966 14.6417 12.7299 13.9142 12.551C13.1866 12.372 12.444 12.8486 12.2553 13.6154Z" fill="#1F1614"/>
<path d="M6.4963 12.1599C6.10937 13.7329 6.83178 15.2629 8.10985 15.5773C9.38792 15.8917 10.7377 14.8714 11.1246 13.2984C11.5115 11.7254 10.7891 10.1953 9.51105 9.88096C8.23298 9.56658 6.88323 10.5869 6.4963 12.1599Z" fill="white"/>
<path d="M6.48776 12.1955C6.29913 12.9624 6.73598 13.7291 7.4635 13.908C8.19102 14.087 8.9337 13.6104 9.12233 12.8436C9.31095 12.0767 8.8741 11.31 8.14658 11.1311C7.41907 10.9521 6.67639 11.4287 6.48776 12.1955Z" fill="#1F1614"/>
<path d="M9.47122 15.716C9.77241 16.5314 11.3007 17.4979 12.631 16.4502" stroke="#2FA372" stroke-width="0.79566" stroke-linecap="round"/>
<path d="M16.7988 10.5566L13.8879 10.4017" stroke="#2FA372" stroke-width="0.785404" stroke-linecap="round"/>
<ellipse cx="10.5282" cy="14.1654" rx="1.81581" ry="1.81581" fill="#FA3F3F"/>
<path fill-rule="evenodd" clip-rule="evenodd" d="M10.831 13.3089C10.7128 13.2672 10.5831 13.3291 10.5414 13.4473C10.5026 13.557 10.5532 13.6767 10.6553 13.7267L10.6797 13.7369C10.7968 13.7783 10.8922 13.8668 10.9428 13.9793L10.9566 14.0138C10.9983 14.132 11.128 14.1939 11.2462 14.1522C11.3644 14.1104 11.4263 13.9807 11.3846 13.8625C11.2933 13.6044 11.0891 13.4002 10.831 13.3089Z" fill="white"/>
<path d="M20.3804 3.54559C17.6899 2.52147 15.7444 3.87104 15.1079 4.67384C14.9806 4.81918 15.0326 5.04649 15.2104 5.1221L21.0701 7.61345C21.2763 7.70111 21.5129 7.58961 21.5764 7.37479L21.6437 7.14749C21.6678 7.06633 21.7348 7.00511 21.7999 6.95095L21.8064 6.94544C21.8993 6.86529 22.0286 6.81608 22.141 6.86527C22.2308 6.90454 22.3354 6.8848 22.4047 6.81551L22.7055 6.51475C22.7857 6.43456 22.827 6.3219 22.8062 6.21044C22.5506 4.84528 21.1017 3.87155 20.3804 3.54559Z" fill="#FA3F3F"/>
<circle cx="22.6778" cy="7.0875" r="0.66465" fill="white" stroke="white" stroke-width="0.375"/>
<path d="M13.9164 5.66805C14.0025 4.98696 14.4634 4.79585 14.7971 4.7047C14.8691 4.68503 14.9434 4.67706 15.0179 4.68176C15.4092 4.70646 16.7902 4.85221 18.6007 5.7079C21.6296 7.13943 21.4762 8.02984 21.4162 8.59505C21.3682 9.04722 20.8896 9.10643 20.6563 9.07952C18.8323 8.12673 15.5231 7.09454 14.0964 6.69755C13.9964 6.67063 13.8204 6.42704 13.9164 5.66805Z" fill="white" stroke="white" stroke-width="0.375"/>
<defs>
<linearGradient id="paint0_linear_5581_23426" x1="12" y1="0" x2="12" y2="24" gradientUnits="userSpaceOnUse">
<stop stop-color="#FFE4CC"/>
<stop offset="0.99" stop-color="#FFD5FB"/>
</linearGradient>
</defs>
</svg>
