<svg width="21" height="20" viewBox="0 0 21 20" fill="currentColor" xmlns="http://www.w3.org/2000/svg">
<g clip-path="url(#clip0_5501_13410)">
<path fill-rule="evenodd" clip-rule="evenodd" d="M5.8735 1.45801C5.12478 1.45799 4.50041 1.45797 4.00477 1.5246C3.4816 1.59494 3.00927 1.74967 2.62971 2.12922C2.25015 2.50878 2.09543 2.98112 2.02509 3.50428C1.95845 3.99992 1.95847 4.62427 1.9585 5.37299V5.45968C1.95847 6.2084 1.95845 6.83276 2.02509 7.32841C2.09543 7.85157 2.25015 8.32391 2.62971 8.70346C3.00927 9.08302 3.4816 9.23775 4.00477 9.30808C4.50041 9.37472 5.12475 9.3747 5.87348 9.37468H5.96016C6.70888 9.3747 7.33325 9.37472 7.8289 9.30808C8.35206 9.23775 8.82439 9.08302 9.20395 8.70346C9.58351 8.32391 9.73824 7.85157 9.80857 7.32841C9.87521 6.83276 9.87519 6.20842 9.87517 5.4597V5.37302C9.87519 4.62429 9.87521 3.99992 9.80857 3.50428C9.73824 2.98112 9.58351 2.50878 9.20395 2.12922C8.82439 1.74967 8.35206 1.59494 7.8289 1.5246C7.33325 1.45797 6.70891 1.45799 5.96019 1.45801H5.8735ZM3.5136 3.01311C3.62219 2.90451 3.78677 2.81516 4.17133 2.76346C4.57386 2.70934 5.11349 2.70801 5.91683 2.70801C6.72018 2.70801 7.25981 2.70934 7.66234 2.76346C8.04689 2.81516 8.21147 2.90451 8.32007 3.01311C8.42867 3.1217 8.51802 3.28629 8.56972 3.67084C8.62384 4.07337 8.62517 4.613 8.62517 5.41634C8.62517 6.21969 8.62384 6.75932 8.56972 7.16185C8.51802 7.5464 8.42867 7.71098 8.32007 7.81958C8.21147 7.92818 8.04689 8.01753 7.66234 8.06923C7.25981 8.12335 6.72018 8.12468 5.91683 8.12468C5.11349 8.12468 4.57386 8.12335 4.17133 8.06923C3.78677 8.01753 3.62219 7.92818 3.5136 7.81958C3.405 7.71098 3.31565 7.5464 3.26395 7.16185C3.20983 6.75932 3.2085 6.21969 3.2085 5.41634C3.2085 4.613 3.20983 4.07337 3.26395 3.67084C3.31565 3.28629 3.405 3.1217 3.5136 3.01311Z" fill="currentColor"/>
<path d="M15.7085 2.91634C15.7085 2.57117 15.4287 2.29134 15.0835 2.29134C14.7383 2.29134 14.4585 2.57117 14.4585 2.91634V4.79134H12.5835C12.2383 4.79134 11.9585 5.07117 11.9585 5.41634C11.9585 5.76152 12.2383 6.04134 12.5835 6.04134H14.4585V7.91634C14.4585 8.26152 14.7383 8.54134 15.0835 8.54134C15.4287 8.54134 15.7085 8.26152 15.7085 7.91634V6.04134H17.5835C17.9287 6.04134 18.2085 5.76152 18.2085 5.41634C18.2085 5.07117 17.9287 4.79134 17.5835 4.79134H15.7085V2.91634Z" fill="white"/>
<path fill-rule="evenodd" clip-rule="evenodd" d="M15.0402 10.6247H15.1268C15.8756 10.6247 16.4999 10.6246 16.9956 10.6913C17.5187 10.7616 17.9911 10.9163 18.3706 11.2959C18.7502 11.6755 18.9049 12.1478 18.9752 12.6709C19.0419 13.1666 19.0419 13.7909 19.0418 14.5396V14.6263C19.0419 15.3751 19.0419 15.9994 18.9752 16.4951C18.9049 17.0182 18.7502 17.4906 18.3706 17.8701C17.9911 18.2497 17.5187 18.4044 16.9956 18.4748C16.4999 18.5414 15.8756 18.5414 15.1269 18.5413H15.0402C14.2915 18.5414 13.6671 18.5414 13.1714 18.4748C12.6483 18.4044 12.1759 18.2497 11.7964 17.8701C11.4168 17.4906 11.2621 17.0182 11.1918 16.4951C11.1251 15.9994 11.1251 15.3751 11.1252 14.6263V14.5397C11.1251 13.7909 11.1251 13.1666 11.1918 12.6709C11.2621 12.1478 11.4168 11.6755 11.7964 11.2959C12.1759 10.9163 12.6483 10.7616 13.1714 10.6913C13.6671 10.6246 14.2914 10.6247 15.0402 10.6247ZM13.338 11.9301C12.9534 11.9818 12.7889 12.0712 12.6803 12.1798C12.5717 12.2884 12.4823 12.453 12.4306 12.8375C12.3765 13.24 12.3752 13.7797 12.3752 14.583C12.3752 15.3864 12.3765 15.926 12.4306 16.3285C12.4823 16.7131 12.5717 16.8777 12.6803 16.9862C12.7889 17.0948 12.9534 17.1842 13.338 17.2359C13.7405 17.29 14.2802 17.2913 15.0835 17.2913C15.8868 17.2913 16.4265 17.29 16.829 17.2359C17.2136 17.1842 17.3781 17.0948 17.4867 16.9862C17.5953 16.8777 17.6847 16.7131 17.7364 16.3285C17.7905 15.926 17.7918 15.3864 17.7918 14.583C17.7918 13.7797 17.7905 13.24 17.7364 12.8375C17.6847 12.453 17.5953 12.2884 17.4867 12.1798C17.3781 12.0712 17.2136 11.9818 16.829 11.9301C16.4265 11.876 15.8868 11.8747 15.0835 11.8747C14.2802 11.8747 13.7405 11.876 13.338 11.9301Z" fill="currentColor"/>
<path fill-rule="evenodd" clip-rule="evenodd" d="M5.8735 10.6247C5.12477 10.6247 4.50042 10.6246 4.00477 10.6913C3.4816 10.7616 3.00927 10.9163 2.62971 11.2959C2.25015 11.6755 2.09543 12.1478 2.02509 12.6709C1.95845 13.1666 1.95847 13.7909 1.9585 14.5397V14.6263C1.95847 15.3751 1.95845 15.9994 2.02509 16.4951C2.09543 17.0182 2.25015 17.4906 2.62971 17.8701C3.00927 18.2497 3.4816 18.4044 4.00477 18.4748C4.50041 18.5414 5.12475 18.5414 5.87348 18.5413H5.96016C6.70888 18.5414 7.33325 18.5414 7.8289 18.4748C8.35206 18.4044 8.82439 18.2497 9.20395 17.8701C9.58351 17.4906 9.73824 17.0182 9.80857 16.4951C9.87521 15.9994 9.87519 15.3751 9.87517 14.6264V14.5397C9.87519 13.791 9.87521 13.1666 9.80857 12.6709C9.73824 12.1478 9.58351 11.6755 9.20395 11.2959C8.82439 10.9163 8.35206 10.7616 7.8289 10.6913C7.33325 10.6246 6.7089 10.6247 5.96017 10.6247H5.8735ZM3.5136 12.1798C3.62219 12.0712 3.78677 11.9818 4.17133 11.9301C4.57386 11.876 5.11349 11.8747 5.91683 11.8747C6.72018 11.8747 7.25981 11.876 7.66234 11.9301C8.04689 11.9818 8.21147 12.0712 8.32007 12.1798C8.42867 12.2884 8.51802 12.453 8.56972 12.8375C8.62384 13.24 8.62517 13.7797 8.62517 14.583C8.62517 15.3864 8.62384 15.926 8.56972 16.3285C8.51802 16.7131 8.42867 16.8777 8.32007 16.9862C8.21147 17.0948 8.04689 17.1842 7.66234 17.2359C7.25981 17.29 6.72018 17.2913 5.91683 17.2913C5.11349 17.2913 4.57386 17.29 4.17133 17.2359C3.78677 17.1842 3.62219 17.0948 3.5136 16.9862C3.405 16.8777 3.31565 16.7131 3.26395 16.3285C3.20983 15.926 3.2085 15.3864 3.2085 14.583C3.2085 13.7797 3.20983 13.24 3.26395 12.8375C3.31565 12.453 3.405 12.2884 3.5136 12.1798Z" fill="currentColor"/>
</g>
<defs>
<clipPath id="clip0_5501_13410">
<rect width="20" height="20" fill="currentColor" transform="translate(0.5)"/>
</clipPath>
</defs>
</svg>
