<svg width="24" height="25" viewBox="0 0 24 25" fill="none" xmlns="http://www.w3.org/2000/svg">
<g id="Outline / Security / Eye">
<g id="Vector">
<path fill-rule="evenodd" clip-rule="evenodd" d="M12 8.35938C9.92893 8.35938 8.25 10.0383 8.25 12.1094C8.25 14.1804 9.92893 15.8594 12 15.8594C14.0711 15.8594 15.75 14.1804 15.75 12.1094C15.75 10.0383 14.0711 8.35938 12 8.35938ZM9.75 12.1094C9.75 10.8667 10.7574 9.85938 12 9.85938C13.2426 9.85938 14.25 10.8667 14.25 12.1094C14.25 13.352 13.2426 14.3594 12 14.3594C10.7574 14.3594 9.75 13.352 9.75 12.1094Z" fill="currentColor"/>
<path fill-rule="evenodd" clip-rule="evenodd" d="M12 3.35938C7.48587 3.35938 4.44529 6.06357 2.68057 8.35624L2.64874 8.39758C2.24964 8.91591 1.88206 9.3933 1.63269 9.95777C1.36564 10.5622 1.25 11.2211 1.25 12.1094C1.25 12.9977 1.36564 13.6565 1.63269 14.261C1.88206 14.8255 2.24964 15.3028 2.64875 15.8212L2.68057 15.8625C4.44529 18.1552 7.48587 20.8594 12 20.8594C16.5141 20.8594 19.5547 18.1552 21.3194 15.8625L21.3512 15.8212C21.7504 15.3029 22.1179 14.8255 22.3673 14.261C22.6344 13.6565 22.75 12.9977 22.75 12.1094C22.75 11.2211 22.6344 10.5622 22.3673 9.95777C22.1179 9.39329 21.7504 8.91589 21.3512 8.39755L21.3194 8.35624C19.5547 6.06357 16.5141 3.35938 12 3.35938ZM3.86922 9.27117C5.49864 7.15429 8.15036 4.85938 12 4.85938C15.8496 4.85938 18.5014 7.15429 20.1308 9.27117C20.5694 9.84096 20.8263 10.1814 20.9952 10.5639C21.1532 10.9214 21.25 11.3583 21.25 12.1094C21.25 12.8604 21.1532 13.2974 20.9952 13.6548C20.8263 14.0373 20.5694 14.3778 20.1308 14.9476C18.5014 17.0645 15.8496 19.3594 12 19.3594C8.15036 19.3594 5.49864 17.0645 3.86922 14.9476C3.43064 14.3778 3.17374 14.0373 3.00476 13.6548C2.84684 13.2974 2.75 12.8604 2.75 12.1094C2.75 11.3583 2.84684 10.9214 3.00476 10.5639C3.17374 10.1814 3.43063 9.84097 3.86922 9.27117Z" fill="currentColor"/>
</g>
</g>
</svg>
