<svg width="32" height="32" viewBox="0 0 32 32" fill="none" xmlns="http://www.w3.org/2000/svg">
<g style="mix-blend-mode:multiply">
<g clip-path="url(#clip0_6145_10267)">
<path fill-rule="evenodd" clip-rule="evenodd" d="M18.4039 7.11095C18.4039 4.65635 20.4028 2.6665 22.8685 2.6665C25.3343 2.6665 27.3332 4.65635 27.3332 7.11095C27.3332 9.56555 25.3343 11.5554 22.8685 11.5554C21.6234 11.5554 20.4982 11.0478 19.6893 10.2311L13.5087 14.4392C13.5659 14.7231 13.5958 15.0164 13.5958 15.3161C13.5958 15.9094 13.4786 16.4766 13.266 16.995L20.0429 21.4476C20.812 20.8213 21.7963 20.4443 22.8685 20.4443C25.3343 20.4443 27.3332 22.4341 27.3332 24.8887C27.3332 27.3433 25.3343 29.3332 22.8685 29.3332C20.4028 29.3332 18.4039 27.3433 18.4039 24.8887C18.4039 24.2458 18.5415 23.6338 18.7888 23.0814L12.0666 18.6648C11.2824 19.3463 10.2553 19.7605 9.13115 19.7605C6.66539 19.7605 4.6665 17.7707 4.6665 15.3161C4.6665 12.8615 6.66539 10.8716 9.13115 10.8716C10.549 10.8716 11.8112 11.5295 12.6284 12.5534L18.6184 8.47507C18.4791 8.04463 18.4039 7.58597 18.4039 7.11095Z" fill="#B1B7BE"/>
</g>
</g>
<defs>
<clipPath id="clip0_6145_10267">
<rect width="32" height="32" fill="white"/>
</clipPath>
</defs>
</svg>
